<?xml version="1.0" standalone="yes"?>
<svg xmlns="http://www.w3.org/2000/svg" width="251" height="202">
<path style="fill:#fefefe; stroke:none;" d="M0 0L0 202L251 202L251 0L0 0z"/>
<path style="fill:#c89f9e; stroke:none;" d="M147 17L151 14L147 17M209 14L208 17L209 17L209 14z"/>
<path style="fill:#cc6265; stroke:none;" d="M207 16L181 43L205 22L207 16M132 33L147 21L149 18C142.884 17.8706 135.316 28.2922 132 33z"/>
<path style="fill:#c89f9e; stroke:none;" d="M145 18L146 19L145 18M148 18L149 19L148 18M144 19L145 20L144 19z"/>
<path style="fill:#111212; stroke:none;" d="M146 19L147 20L146 19z"/>
<path style="fill:#c89f9e; stroke:none;" d="M147 19L148 20L147 19M206 19L207 20L206 19M143 20L144 21L143 20z"/>
<path style="fill:#111212; stroke:none;" d="M145 20C125.474 39.5258 98.2682 74.0891 68 73C79.7601 110.021 54.8216 146.643 45 181L46 181L120.05 63L138.601 33L145 20z"/>
<path style="fill:#c89f9e; stroke:none;" d="M202 20L203 21L202 20z"/>
<path style="fill:#d42420; stroke:none;" d="M204 20L205 21L204 20z"/>
<path style="fill:#c89f9e; stroke:none;" d="M142 21L143 22L142 21M146 21L147 22L146 21M201 21L202 22L201 21z"/>
<path style="fill:#d42420; stroke:none;" d="M203 21C183.952 40.048 157.513 73.9186 128 74C136.76 112.323 112.359 142.217 106 178L107 178L178.053 64L196.053 35L203 21z"/>
<path style="fill:#c89f9e; stroke:none;" d="M205 21L206 22L205 21M145 22L146 23L145 22M200 22L201 23L200 22M204 22L205 23L204 22M140 23L141 24L140 23z"/>
<path style="fill:#cc6265; stroke:none;" d="M144 23L145 24L144 23M203 23L201 27L202 27L203 23z"/>
<path style="fill:#c89f9e; stroke:none;" d="M139 24L140 25L139 24M144 24L145 25L144 24M203 24L204 25L203 24M138 25L139 26L138 25M143 25L144 26L143 25M197 25L198 26L197 25M202 25L203 26L202 25M137 26L138 27L137 26z"/>
<path style="fill:#cc6265; stroke:none;" d="M142 26L143 27L142 26z"/>
<path style="fill:#c89f9e; stroke:none;" d="M136 27L137 28L136 27M142 27L143 28L142 27M195 27L196 28L195 27M201 27L202 28L201 27M135 28L136 29L135 28M141 28L140 31L141 28M194 28L195 29L194 28z"/>
<path style="fill:#cc6265; stroke:none;" d="M200 28L199 30L200 28z"/>
<path style="fill:#c89f9e; stroke:none;" d="M134 29L135 30L134 29z"/>
<path style="fill:#cc6265; stroke:none;" d="M140 29L141 30L140 29z"/>
<path style="fill:#c89f9e; stroke:none;" d="M193 29L194 30L193 29M200 29L201 30L200 29M133 30L134 31L133 30M192 30L193 31L192 30M199 30L200 31L199 30M132 31L133 32L132 31z"/>
<path style="fill:#cc6265; stroke:none;" d="M139 31L140 32L139 31M198 31L197 33L198 31z"/>
<path style="fill:#c89f9e; stroke:none;" d="M131 32L132 33L131 32M139 32L140 33L139 32M190 32L191 33L190 32M198 32L199 33L198 32M130 33L131 34L130 33M138 33L139 34L138 33M189 33L190 34L189 33M197 33L198 34L197 33M97 34L97 35L103 35L97 34M129 34L130 35L129 34z"/>
<path style="fill:#cc6265; stroke:none;" d="M137 34L138 35L137 34z"/>
<path style="fill:#c89f9e; stroke:none;" d="M156 34L156 35L163 35L156 34M188 34L189 35L188 34z"/>
<path style="fill:#cc6265; stroke:none;" d="M196 34L194 38L195 38L196 34z"/>
<path style="fill:#c89f9e; stroke:none;" d="M94.6667 35.3333L95.3333 35.6667L94.6667 35.3333z"/>
<path style="fill:#cc6265; stroke:none;" d="M96 35L97 36L96 35z"/>
<path style="fill:#111212; stroke:none;" d="M97 35.5332C83.0598 38.5667 81.5495 58.7573 98 55.659C111.822 53.0556 112.838 32.0866 97 35.5332z"/>
<path style="fill:#cc6265; stroke:none;" d="M103 35L104 36L103 35z"/>
<path style="fill:#c89f9e; stroke:none;" d="M104 35L104 36L107 37L104 35M128 35L129 36L128 35M137 35L138 36L137 35M153 35L154 36L153 35z"/>
<path style="fill:#cc6265; stroke:none;" d="M154 35L154 36L167 38L154 35z"/>
<path style="fill:#c89f9e; stroke:none;" d="M164 35L165 36L164 35M187 35L188 36L187 35M196 35L197 36L196 35M92 36L93 37L92 36z"/>
<path style="fill:#cc6265; stroke:none;" d="M93 36L94 37L93 36M105 36L106 37L105 36z"/>
<path style="fill:#c89f9e; stroke:none;" d="M127 36L128 37L127 36M136.333 36.6667L136.667 37.3333L136.333 36.6667M151 36L152 37L151 36z"/>
<path style="fill:#cc6265; stroke:none;" d="M152 36L146 42L153 37L152 36z"/>
<path style="fill:#d42420; stroke:none;" d="M153.001 36.858C139.353 42.4124 145.823 60.2954 159.985 54.3866C174.034 48.5252 167.192 31.0826 153.001 36.858z"/>
<path style="fill:#c89f9e; stroke:none;" d="M165.667 36.3333L166.333 36.6667L165.667 36.3333M186 36L187 37L186 36M90 37L91 38L90 37z"/>
<path style="fill:#cc6265; stroke:none;" d="M91 37L92 38L91 37z"/>
<path style="fill:#c89f9e; stroke:none;" d="M107 37L108 38L107 37M126 37L127 38L126 37M149 37L150 38L149 37M185 37L186 38L185 37M195 37L196 38L195 37M89 38L90 39L89 38M108 38L109 39L108 38M125 38L126 39L125 38M135 38L136 39L135 38M148 38L149 39L148 38M167 38L169 40L167 38M184 38L185 39L184 38M194 38L195 39L194 38M88 39L89 40L88 39M124 39L125 40L124 39z"/>
<path style="fill:#cc6265; stroke:none;" d="M134 39L135 40L134 39z"/>
<path style="fill:#c89f9e; stroke:none;" d="M147 39L148 40L147 39z"/>
<path style="fill:#cc6265; stroke:none;" d="M167 39L168 40L167 39z"/>
<path style="fill:#c89f9e; stroke:none;" d="M183 39L184 40L183 39z"/>
<path style="fill:#cc6265; stroke:none;" d="M193 39L192 41L193 39z"/>
<path style="fill:#c89f9e; stroke:none;" d="M87 40L88 41L87 40M109 40L110 41L109 40M123 40L124 41L123 40M134 40L135 41L134 40M146 40L147 41L146 40z"/>
<path style="fill:#cc6265; stroke:none;" d="M168.333 40.6667L168.667 41.3333L168.333 40.6667z"/>
<path style="fill:#c89f9e; stroke:none;" d="M182 40L183 41L182 40M193 40L194 41L193 40M86 41L87 42L86 41z"/>
<path style="fill:#cc6265; stroke:none;" d="M109 41L110 42L109 41z"/>
<path style="fill:#c89f9e; stroke:none;" d="M122 41L123 42L122 41M133 41L134 42L133 41M181 41L182 42L181 41M192 41L191 44L192 41z"/>
<path style="fill:#cc6265; stroke:none;" d="M86 42L87 43L86 42z"/>
<path style="fill:#c89f9e; stroke:none;" d="M121 42L122 43L121 42z"/>
<path style="fill:#cc6265; stroke:none;" d="M132 42L133 43L132 42z"/>
<path style="fill:#c89f9e; stroke:none;" d="M145 42L146 43L145 42M180 42L181 43L180 42z"/>
<path style="fill:#cc6265; stroke:none;" d="M191 42L192 43L191 42z"/>
<path style="fill:#c89f9e; stroke:none;" d="M85.3333 43.6667L85.6667 44.3333L85.3333 43.6667M120 43L121 44L120 43M132 43L133 44L132 43z"/>
<path style="fill:#cc6265; stroke:none;" d="M145 43L146 44L145 43z"/>
<path style="fill:#c89f9e; stroke:none;" d="M179 43L180 44L179 43z"/>
<path style="fill:#cc6265; stroke:none;" d="M190 43L189 46L190 43M109 44L110 45L109 44z"/>
<path style="fill:#c89f9e; stroke:none;" d="M119 44L120 45L119 44M131 44L130 47L131 44M144 44L145 45L144 44M178 44L179 45L178 44z"/>
<path style="fill:#cc6265; stroke:none;" d="M85 45L86 46L85 45z"/>
<path style="fill:#c89f9e; stroke:none;" d="M109.333 45.6667L109.667 46.3333L109.333 45.6667M118 45L119 46L118 45z"/>
<path style="fill:#cc6265; stroke:none;" d="M130 45L131 46L130 45M144 45L144 50L145 50L144 45M168 45L169 46L168 45z"/>
<path style="fill:#c89f9e; stroke:none;" d="M177 45L178 46L177 45M190 45L191 46L190 45M117 46L118 47L117 46M168 46L169 47L168 46z"/>
<path style="fill:#cc6265; stroke:none;" d="M176 46L177 47L176 46z"/>
<path style="fill:#c89f9e; stroke:none;" d="M189 46L190 47L189 46z"/>
<path style="fill:#cc6265; stroke:none;" d="M116 47L117 48L116 47M129 47L130 48L129 47M167 47L168 48L167 47M175 47L176 48L175 47M188 47L187 49L188 47M108 48L107 50L108 48z"/>
<path style="fill:#c89f9e; stroke:none;" d="M114 48L113 50L114 48z"/>
<path style="fill:#cc6265; stroke:none;" d="M115 48L116 49L115 48z"/>
<path style="fill:#c89f9e; stroke:none;" d="M129 48L130 49L129 48M167 48L168 49L167 48z"/>
<path style="fill:#cc6265; stroke:none;" d="M174 48L175 49L174 48z"/>
<path style="fill:#c89f9e; stroke:none;" d="M188 48L189 49L188 48M108 49L109 50L108 49z"/>
<path style="fill:#cc6265; stroke:none;" d="M114 49L115 50L114 49z"/>
<path style="fill:#c89f9e; stroke:none;" d="M128 49L129 50L128 49z"/>
<path style="fill:#cc6265; stroke:none;" d="M166 49L167 50L166 49z"/>
<path style="fill:#c89f9e; stroke:none;" d="M172 49L170 52L172 49z"/>
<path style="fill:#cc6265; stroke:none;" d="M173 49L174 50L173 49z"/>
<path style="fill:#c89f9e; stroke:none;" d="M187 49L186 52L187 49z"/>
<path style="fill:#cc6265; stroke:none;" d="M85 50L86 51L85 50z"/>
<path style="fill:#c89f9e; stroke:none;" d="M107 50L108 51L107 50M112 50L113 51L112 50z"/>
<path style="fill:#cc6265; stroke:none;" d="M127 50L128 51L127 50z"/>
<path style="fill:#c89f9e; stroke:none;" d="M144 50L146 53L144 50z"/>
<path style="fill:#cc6265; stroke:none;" d="M165 50L166 51L165 50M172 50L173 51L172 50M186 50L187 51L186 50z"/>
<path style="fill:#c89f9e; stroke:none;" d="M85 51L87 54L85 51M106 51L107 52L106 51M111 51L112 52L111 51M127 51L128 52L127 51z"/>
<path style="fill:#cc6265; stroke:none;" d="M145 51L146 52L145 51z"/>
<path style="fill:#c89f9e; stroke:none;" d="M165 51L166 52L165 51z"/>
<path style="fill:#cc6265; stroke:none;" d="M171 51L172 52L171 51M86 52L87 53L86 52z"/>
<path style="fill:#c89f9e; stroke:none;" d="M105 52L106 53L105 52M110 52L111 53L110 52M126 52L127 53L126 52z"/>
<path style="fill:#cc6265; stroke:none;" d="M163 52L164 53L163 52z"/>
<path style="fill:#c89f9e; stroke:none;" d="M164 52L165 53L164 52M169 52L170 53L169 52z"/>
<path style="fill:#cc6265; stroke:none;" d="M185 52L184 54L185 52M103 53L104 54L103 53M109 53L110 54L109 53M146 53L147 54L146 53z"/>
<path style="fill:#c89f9e; stroke:none;" d="M162 53L163 54L162 53M168 53L169 54L168 53M185 53L186 54L185 53M87 54L88 55L87 54M102 54L103 55L102 54z"/>
<path style="fill:#cc6265; stroke:none;" d="M108 54L109 55L108 54z"/>
<path style="fill:#c89f9e; stroke:none;" d="M125 54L126 55L125 54M147 54L148 55L147 54z"/>
<path style="fill:#cc6265; stroke:none;" d="M160 54L161 55L160 54z"/>
<path style="fill:#c89f9e; stroke:none;" d="M161 54L162 55L161 54z"/>
<path style="fill:#cc6265; stroke:none;" d="M167 54L168 55L167 54z"/>
<path style="fill:#c89f9e; stroke:none;" d="M184 54L185 55L184 54M89 55L90 56L89 55z"/>
<path style="fill:#cc6265; stroke:none;" d="M90 55L91 56L90 55z"/>
<path style="fill:#c89f9e; stroke:none;" d="M99.6667 55.3333L100.333 55.6667L99.6667 55.3333M106 55L107 56L106 55z"/>
<path style="fill:#cc6265; stroke:none;" d="M107 55L108 56L107 55M124 55L125 56L124 55z"/>
<path style="fill:#c89f9e; stroke:none;" d="M149 55L150 56L149 55z"/>
<path style="fill:#cc6265; stroke:none;" d="M150 55L151 56L150 55M156 55L157 56L156 55z"/>
<path style="fill:#c89f9e; stroke:none;" d="M157.667 55.3333L158.333 55.6667L157.667 55.3333z"/>
<path style="fill:#cc6265; stroke:none;" d="M166 55L167 56L166 55M183 55L184 56L183 55z"/>
<path style="fill:#c89f9e; stroke:none;" d="M92 56L92 57L97 57L92 56M105 56L106 57L105 56M155 56L156 57L155 56z"/>
<path style="fill:#cc6265; stroke:none;" d="M165 56L166 57L165 56z"/>
<path style="fill:#c89f9e; stroke:none;" d="M183 56L184 57L183 56z"/>
<path style="fill:#cc6265; stroke:none;" d="M104 57L105 58L104 57z"/>
<path style="fill:#c89f9e; stroke:none;" d="M123 57L124 58L123 57M163 57L164 58L163 57z"/>
<path style="fill:#cc6265; stroke:none;" d="M182 57L183 58L182 57M103 58L104 59L103 58z"/>
<path style="fill:#c89f9e; stroke:none;" d="M162 58L163 59L162 58z"/>
<path style="fill:#cc6265; stroke:none;" d="M181 58L182 59L181 58z"/>
<path style="fill:#c89f9e; stroke:none;" d="M101 59L102 60L101 59M122 59L123 60L122 59M160 59L159 61L160 59z"/>
<path style="fill:#cc6265; stroke:none;" d="M161 59L162 60L161 59z"/>
<path style="fill:#c89f9e; stroke:none;" d="M181 59L182 60L181 59M100 60L101 61L100 60M121 60L122 61L121 60z"/>
<path style="fill:#cc6265; stroke:none;" d="M160 60L161 61L160 60M180 60L179 62L180 60M99 61L100 62L99 61z"/>
<path style="fill:#c89f9e; stroke:none;" d="M158 61L159 62L158 61M180 61L181 62L180 61M97 62L98 63L97 62z"/>
<path style="fill:#cc6265; stroke:none;" d="M98 62L99 63L98 62z"/>
<path style="fill:#c89f9e; stroke:none;" d="M120 62L121 63L120 62M156 62L155 64L156 62z"/>
<path style="fill:#cc6265; stroke:none;" d="M157 62L158 63L157 62z"/>
<path style="fill:#c89f9e; stroke:none;" d="M179 62L180 63L179 62M96 63L97 64L96 63z"/>
<path style="fill:#cc6265; stroke:none;" d="M119 63L120 64L119 63M156 63L157 64L156 63M178 63L177 65L178 63z"/>
<path style="fill:#c89f9e; stroke:none;" d="M94 64L95 65L94 64z"/>
<path style="fill:#cc6265; stroke:none;" d="M95 64L96 65L95 64z"/>
<path style="fill:#c89f9e; stroke:none;" d="M119 64L120 65L119 64M153 64L152 66L153 64z"/>
<path style="fill:#cc6265; stroke:none;" d="M154 64L155 65L154 64z"/>
<path style="fill:#c89f9e; stroke:none;" d="M178 64L179 65L178 64M93 65L94 66L93 65M118 65L119 66L118 65z"/>
<path style="fill:#cc6265; stroke:none;" d="M153 65L154 66L153 65z"/>
<path style="fill:#c89f9e; stroke:none;" d="M177 65L178 66L177 65M91 66L92 67L91 66M150 66L151 67L150 66z"/>
<path style="fill:#cc6265; stroke:none;" d="M151 66L152 67L151 66M176 66L177 67L176 66z"/>
<path style="fill:#c89f9e; stroke:none;" d="M89 67L90 68L89 67z"/>
<path style="fill:#cc6265; stroke:none;" d="M90 67L91 68L90 67z"/>
<path style="fill:#c89f9e; stroke:none;" d="M117 67L118 68L117 67M148 67L147 69L148 67z"/>
<path style="fill:#cc6265; stroke:none;" d="M149 67L150 68L149 67z"/>
<path style="fill:#c89f9e; stroke:none;" d="M176 67L177 68L176 67M88 68L89 69L88 68z"/>
<path style="fill:#cc6265; stroke:none;" d="M116 68L117 69L116 68M148 68L149 69L148 68z"/>
<path style="fill:#c89f9e; stroke:none;" d="M175 68L174 71L175 68M86 69L87 70L86 69M116 69L117 70L116 69M145 69L146 70L145 69z"/>
<path style="fill:#cc6265; stroke:none;" d="M146 69L147 70L146 69M174 69L175 70L174 69z"/>
<path style="fill:#c89f9e; stroke:none;" d="M83.6667 70.3333L84.3333 70.6667L83.6667 70.3333M115 70L116 71L115 70M142.667 70.3333L143.333 70.6667L142.667 70.3333z"/>
<path style="fill:#cc6265; stroke:none;" d="M144 70L145 71L144 70z"/>
<path style="fill:#c89f9e; stroke:none;" d="M81 71L82 72L81 71z"/>
<path style="fill:#cc6265; stroke:none;" d="M82 71L83 72L82 71M114 71L115 72L114 71z"/>
<path style="fill:#c89f9e; stroke:none;" d="M139.667 71.3333L140.333 71.6667L139.667 71.3333z"/>
<path style="fill:#cc6265; stroke:none;" d="M141 71L142 72L141 71M173 71L172 73L173 71z"/>
<path style="fill:#c89f9e; stroke:none;" d="M67.3333 72.6667L67.6667 73.3333L67.3333 72.6667z"/>
<path style="fill:#cc6265; stroke:none;" d="M68 72L69 73L68 72z"/>
<path style="fill:#c89f9e; stroke:none;" d="M69.6667 72.3333L70.3333 72.6667L69.6667 72.3333M76 72L76 73L79 73L76 72z"/>
<path style="fill:#cc6265; stroke:none;" d="M79 72L80 73L79 72z"/>
<path style="fill:#c89f9e; stroke:none;" d="M114 72L115 73L114 72M126 72L127 73L126 72z"/>
<path style="fill:#cc6265; stroke:none;" d="M127 72L137 74L137 73L127 72z"/>
<path style="fill:#c89f9e; stroke:none;" d="M128 72L128 73L131 73L128 72M134 72L134 73L138 73L134 72z"/>
<path style="fill:#cc6265; stroke:none;" d="M138.667 72.3333L139.333 72.6667L138.667 72.3333z"/>
<path style="fill:#c89f9e; stroke:none;" d="M173 72L174 73L173 72z"/>
<path style="fill:#cc6265; stroke:none;" d="M72.6667 73.3333L73.3333 73.6667L72.6667 73.3333z"/>
<path style="fill:#c89f9e; stroke:none;" d="M113 73L114 74L113 73M172 73L173 74L172 73z"/>
<path style="fill:#cc6265; stroke:none;" d="M68 74L69 75L68 74M112 74L113 75L112 74z"/>
<path style="fill:#c89f9e; stroke:none;" d="M127 74L128 75L127 74z"/>
<path style="fill:#cc6265; stroke:none;" d="M171 74L172 75L171 74z"/>
<path style="fill:#c89f9e; stroke:none;" d="M68.3333 75.6667L68.6667 76.3333L68.3333 75.6667M112 75L113 76L112 75M171 75L172 76L171 75z"/>
<path style="fill:#cc6265; stroke:none;" d="M111 76L112 77L111 76M128 76L129 77L128 76M170 76L171 77L170 76M69 77L70 78L69 77z"/>
<path style="fill:#c89f9e; stroke:none;" d="M111 77L112 78L111 77M128.333 77.6667L128.667 78.3333L128.333 77.6667z"/>
<path style="fill:#cc6265; stroke:none;" d="M169 77L170 78L169 77z"/>
<path style="fill:#c89f9e; stroke:none;" d="M69.3333 78.6667L69.6667 79.3333L69.3333 78.6667M110 78L111 79L110 78M169 78L170 79L169 78z"/>
<path style="fill:#cc6265; stroke:none;" d="M109 79L110 80L109 79M129.333 79.6667L129.667 80.3333L129.333 79.6667M168 79L169 80L168 79z"/>
<path style="fill:#c89f9e; stroke:none;" d="M109 80L110 81L109 80z"/>
<path style="fill:#cc6265; stroke:none;" d="M167 80L168 81L167 80M108 81L107 83L108 81z"/>
<path style="fill:#c89f9e; stroke:none;" d="M129 81L129 89L130 89L129 81M167 81L168 82L167 81z"/>
<path style="fill:#cc6265; stroke:none;" d="M70 82L71 83L70 82z"/>
<path style="fill:#c89f9e; stroke:none;" d="M108 82L109 83L108 82z"/>
<path style="fill:#cc6265; stroke:none;" d="M166 82L167 83L166 82z"/>
<path style="fill:#c89f9e; stroke:none;" d="M70 83L70 99L71 99L70 83M107 83L108 84L107 83M166 83L167 84L166 83z"/>
<path style="fill:#cc6265; stroke:none;" d="M106 84L107 85L106 84z"/>
<path style="fill:#c89f9e; stroke:none;" d="M165 84L166 85L165 84M106 85L107 86L106 85z"/>
<path style="fill:#cc6265; stroke:none;" d="M164 85L165 86L164 85z"/>
<path style="fill:#c89f9e; stroke:none;" d="M105 86L106 87L105 86M164 86L165 87L164 86z"/>
<path style="fill:#cc6265; stroke:none;" d="M104 87L105 88L104 87M163 87L164 88L163 87z"/>
<path style="fill:#c89f9e; stroke:none;" d="M104 88L105 89L104 88z"/>
<path style="fill:#cc6265; stroke:none;" d="M162 88L163 89L162 88z"/>
<path style="fill:#c89f9e; stroke:none;" d="M103 89L104 90L103 89M162 89L163 90L162 89z"/>
<path style="fill:#cc6265; stroke:none;" d="M102 90L103 91L102 90M161 90L162 91L161 90z"/>
<path style="fill:#c89f9e; stroke:none;" d="M102 91L103 92L102 91M161 91L162 92L161 91z"/>
<path style="fill:#cc6265; stroke:none;" d="M101 92L102 93L101 92z"/>
<path style="fill:#c89f9e; stroke:none;" d="M129 92L129 101L130 101L129 92z"/>
<path style="fill:#cc6265; stroke:none;" d="M160 92L161 93L160 92z"/>
<path style="fill:#c89f9e; stroke:none;" d="M101 93L102 94L101 93z"/>
<path style="fill:#cc6265; stroke:none;" d="M159 93L160 94L159 93z"/>
<path style="fill:#c89f9e; stroke:none;" d="M100 94L101 95L100 94M159 94L160 95L159 94z"/>
<path style="fill:#cc6265; stroke:none;" d="M99 95L100 96L99 95M158 95L159 96L158 95z"/>
<path style="fill:#c89f9e; stroke:none;" d="M99 96L100 97L99 96M158 96L159 97L158 96M98 97L97 100L98 97M157 97L158 98L157 97z"/>
<path style="fill:#cc6265; stroke:none;" d="M97 98L98 99L97 98M156 98L155 100L156 98M70 99L71 100L70 99z"/>
<path style="fill:#c89f9e; stroke:none;" d="M156 99L157 100L156 99z"/>
<path style="fill:#cc6265; stroke:none;" d="M96 100L97 101L96 100z"/>
<path style="fill:#c89f9e; stroke:none;" d="M155 100L156 101L155 100M96 101L97 102L96 101z"/>
<path style="fill:#cc6265; stroke:none;" d="M129.333 101.667L129.667 102.333L129.333 101.667M154 101L155 102L154 101z"/>
<path style="fill:#c89f9e; stroke:none;" d="M69 102L69 106L70 106L69 102M95 102L96 103L95 102M154 102L155 103L154 102z"/>
<path style="fill:#cc6265; stroke:none;" d="M94 103L95 104L94 103M153 103L152 105L153 103z"/>
<path style="fill:#c89f9e; stroke:none;" d="M94 104L95 105L94 104M153 104L154 105L153 104M93 105L94 106L93 105M128.333 105.667L128.667 106.333L128.333 105.667M152 105L153 106L152 105z"/>
<path style="fill:#cc6265; stroke:none;" d="M69 106L70 107L69 106M92 106L93 107L92 106M151 106L150 108L151 106z"/>
<path style="fill:#c89f9e; stroke:none;" d="M92 107L93 108L92 107z"/>
<path style="fill:#cc6265; stroke:none;" d="M128 107L129 108L128 107z"/>
<path style="fill:#c89f9e; stroke:none;" d="M151 107L152 108L151 107M68 108L68 111L69 111L68 108M91.3333 108.667L91.6667 109.333L91.3333 108.667M150 108L151 109L150 108M127 109L127 112L128 112L127 109z"/>
<path style="fill:#cc6265; stroke:none;" d="M149 109L147 113L148 113L149 109z"/>
<path style="fill:#c89f9e; stroke:none;" d="M90 110L91 111L90 110M149 110L150 111L149 110z"/>
<path style="fill:#cc6265; stroke:none;" d="M68 111L69 112L68 111M89 111L90 112L89 111z"/>
<path style="fill:#c89f9e; stroke:none;" d="M67 112L67 115L68 115L67 112M89 112L90 113L89 112z"/>
<path style="fill:#cc6265; stroke:none;" d="M127 112L128 113L127 112z"/>
<path style="fill:#c89f9e; stroke:none;" d="M148 112L149 113L148 112M88 113L89 114L88 113M147 113L148 114L147 113z"/>
<path style="fill:#cc6265; stroke:none;" d="M87 114L88 115L87 114z"/>
<path style="fill:#c89f9e; stroke:none;" d="M126.333 114.667L126.667 115.333L126.333 114.667z"/>
<path style="fill:#cc6265; stroke:none;" d="M146 114L145 116L146 114M67.3333 115.667L67.6667 116.333L67.3333 115.667z"/>
<path style="fill:#c89f9e; stroke:none;" d="M87 115L88 116L87 115M146 115L147 116L146 115z"/>
<path style="fill:#cc6265; stroke:none;" d="M86 116L87 117L86 116M126 116L127 117L126 116z"/>
<path style="fill:#c89f9e; stroke:none;" d="M145 116L144 119L145 116M86 117L87 118L86 117z"/>
<path style="fill:#cc6265; stroke:none;" d="M144 117L145 118L144 117z"/>
<path style="fill:#c89f9e; stroke:none;" d="M66.3333 118.667L66.6667 119.333L66.3333 118.667M85 118L86 119L85 118M125 118L126 119L125 118z"/>
<path style="fill:#cc6265; stroke:none;" d="M143 118L142 121L143 118M84 119L85 120L84 119M125.333 119.667L125.667 120.333L125.333 119.667M66 120L67 121L66 120z"/>
<path style="fill:#c89f9e; stroke:none;" d="M84 120L85 121L84 120M143 120L144 121L143 120M65.3333 121.667L65.6667 122.333L65.3333 121.667M83 121L84 122L83 121M142 121L139 127L140 127L142 121z"/>
<path style="fill:#cc6265; stroke:none;" d="M82 122L83 123L82 122z"/>
<path style="fill:#c89f9e; stroke:none;" d="M124.333 122.667L124.667 123.333L124.333 122.667z"/>
<path style="fill:#cc6265; stroke:none;" d="M141 122L142 123L141 122M65 123L66 124L65 123z"/>
<path style="fill:#c89f9e; stroke:none;" d="M82 123L83 124L82 123z"/>
<path style="fill:#cc6265; stroke:none;" d="M140 123L141 124L140 123z"/>
<path style="fill:#c89f9e; stroke:none;" d="M64 124L64 127L65 127L64 124z"/>
<path style="fill:#cc6265; stroke:none;" d="M81 124L82 125L81 124M124 124L125 125L124 124z"/>
<path style="fill:#c89f9e; stroke:none;" d="M81 125L82 126L81 125z"/>
<path style="fill:#cc6265; stroke:none;" d="M139 125L140 126L139 125z"/>
<path style="fill:#c89f9e; stroke:none;" d="M80 126L81 127L80 126M123 126L124 127L123 126z"/>
<path style="fill:#cc6265; stroke:none;" d="M64 127L65 128L64 127M79 127L80 128L79 127M123 127L124 128L123 127M138 127L137 129L138 127z"/>
<path style="fill:#c89f9e; stroke:none;" d="M63.3333 128.667L63.6667 129.333L63.3333 128.667M79 128L80 129L79 128M138 128L139 129L138 128M78 129L79 130L78 129M122 129L123 130L122 129M137 129L138 130L137 129z"/>
<path style="fill:#cc6265; stroke:none;" d="M63 130L64 131L63 130M77 130L78 131L77 130M122.333 130.667L122.667 131.333L122.333 130.667M136 130L137 131L136 130z"/>
<path style="fill:#c89f9e; stroke:none;" d="M62.3333 131.667L62.6667 132.333L62.3333 131.667M77 131L78 132L77 131M136 131L137 132L136 131z"/>
<path style="fill:#cc6265; stroke:none;" d="M76 132L77 133L76 132z"/>
<path style="fill:#c89f9e; stroke:none;" d="M121 132L122 133L121 132M135 132L134 135L135 132z"/>
<path style="fill:#cc6265; stroke:none;" d="M62 133L63 134L62 133M121 133L122 134L121 133M134 133L135 134L134 133z"/>
<path style="fill:#c89f9e; stroke:none;" d="M61.3333 134.667L61.6667 135.333L61.3333 134.667M75 134L76 135L75 134M74 135L75 136L74 135M120.333 135.667L120.667 136.333L120.333 135.667z"/>
<path style="fill:#cc6265; stroke:none;" d="M133 135L132 137L133 135M61 136L62 137L61 136z"/>
<path style="fill:#c89f9e; stroke:none;" d="M133 136L134 137L133 136M60.3333 137.667L60.6667 138.333L60.3333 137.667M73 137L74 138L73 137z"/>
<path style="fill:#cc6265; stroke:none;" d="M120 137L121 138L120 137z"/>
<path style="fill:#c89f9e; stroke:none;" d="M132 137L133 138L132 137z"/>
<path style="fill:#cc6265; stroke:none;" d="M72 138L73 139L72 138z"/>
<path style="fill:#c89f9e; stroke:none;" d="M119.333 138.667L119.667 139.333L119.333 138.667z"/>
<path style="fill:#cc6265; stroke:none;" d="M131 138L132 139L131 138M60 139L61 140L60 139z"/>
<path style="fill:#c89f9e; stroke:none;" d="M72 139L73 140L72 139M131 139L132 140L131 139M59.3333 140.667L59.6667 141.333L59.3333 140.667M71 140L72 141L71 140z"/>
<path style="fill:#cc6265; stroke:none;" d="M119 140L120 141L119 140M130 140L131 141L130 140z"/>
<path style="fill:#c89f9e; stroke:none;" d="M118.333 141.667L118.667 142.333L118.333 141.667M130 141L131 142L130 141z"/>
<path style="fill:#cc6265; stroke:none;" d="M59 142L60 143L59 142z"/>
<path style="fill:#c89f9e; stroke:none;" d="M70 142L71 143L70 142M129 142L130 143L129 142M58.3333 143.667L58.6667 144.333L58.3333 143.667z"/>
<path style="fill:#cc6265; stroke:none;" d="M118 143L119 144L118 143M128 143L129 144L128 143z"/>
<path style="fill:#c89f9e; stroke:none;" d="M69 144L70 145L69 144M117.333 144.667L117.667 145.333L117.333 144.667M128 144L129 145L128 144z"/>
<path style="fill:#cc6265; stroke:none;" d="M58 145L59 146L58 145z"/>
<path style="fill:#c89f9e; stroke:none;" d="M68 145L69 146L68 145M127 145L128 146L127 145M57.3333 146.667L57.6667 147.333L57.3333 146.667z"/>
<path style="fill:#cc6265; stroke:none;" d="M67 146L68 147L67 146M117 146L118 147L117 146M126 146L127 147L126 146z"/>
<path style="fill:#c89f9e; stroke:none;" d="M67 147L68 148L67 147M116 147L117 148L116 147M126 147L127 148L126 147z"/>
<path style="fill:#cc6265; stroke:none;" d="M57 148L58 149L57 148M66 148L67 149L66 148M116 148L117 149L116 148M125 148L126 149L125 148z"/>
<path style="fill:#c89f9e; stroke:none;" d="M56 149L55 153L56 153L56 149M65 150L66 151L65 150M115 150L116 151L115 150M124 150L125 151L124 150z"/>
<path style="fill:#cc6265; stroke:none;" d="M56 151L57 152L56 151M64 151L65 152L64 151M115 151L116 152L115 151M123 151L124 152L123 151z"/>
<path style="fill:#c89f9e; stroke:none;" d="M64 152L65 153L64 152z"/>
<path style="fill:#cc6265; stroke:none;" d="M55 153L56 154L55 153z"/>
<path style="fill:#c89f9e; stroke:none;" d="M63 153L64 154L63 153M114 153L115 154L114 153M122 153L123 154L122 153M54.3333 154.667L54.6667 155.333L54.3333 154.667z"/>
<path style="fill:#cc6265; stroke:none;" d="M114 154L115 155L114 154M121 154L122 155L121 154z"/>
<path style="fill:#c89f9e; stroke:none;" d="M62 155L63 156L62 155M113.333 155.667L113.667 156.333L113.333 155.667M121 155L122 156L121 155z"/>
<path style="fill:#cc6265; stroke:none;" d="M54 156L55 157L54 156z"/>
<path style="fill:#c89f9e; stroke:none;" d="M61.3333 156.667L61.6667 157.333L61.3333 156.667z"/>
<path style="fill:#cc6265; stroke:none;" d="M120 156L121 157L120 156z"/>
<path style="fill:#c89f9e; stroke:none;" d="M53.3333 157.667L53.6667 158.333L53.3333 157.667z"/>
<path style="fill:#cc6265; stroke:none;" d="M113 157L114 158L113 157z"/>
<path style="fill:#c89f9e; stroke:none;" d="M60 158L61 159L60 158M112 158L110 164L111 164L112 158M119 158L120 159L119 158M52.3333 159.667L52.6667 160.333L52.3333 159.667z"/>
<path style="fill:#cc6265; stroke:none;" d="M59 159L60 160L59 159M118 159L119 160L118 159z"/>
<path style="fill:#c89f9e; stroke:none;" d="M59 160L60 161L59 160z"/>
<path style="fill:#cc6265; stroke:none;" d="M112 160L113 161L112 160z"/>
<path style="fill:#c89f9e; stroke:none;" d="M118 160L119 161L118 160z"/>
<path style="fill:#cc6265; stroke:none;" d="M52 161L53 162L52 161z"/>
<path style="fill:#c89f9e; stroke:none;" d="M58 161L59 162L58 161M117 161L118 162L117 161M51.3333 162.667L51.6667 163.333L51.3333 162.667z"/>
<path style="fill:#cc6265; stroke:none;" d="M57 162L58 163L57 162M111 162L112 163L111 162M116 162L117 163L116 162z"/>
<path style="fill:#c89f9e; stroke:none;" d="M57 163L58 164L57 163M116 163L117 164L116 163M50.3333 164.667L50.6667 165.333L50.3333 164.667M56.3333 164.667L56.6667 165.333L56.3333 164.667z"/>
<path style="fill:#cc6265; stroke:none;" d="M110.333 164.667L110.667 165.333L110.333 164.667M115 164L114 166L115 164z"/>
<path style="fill:#c89f9e; stroke:none;" d="M109.333 165.667L109.667 166.333L109.333 165.667M115 165L116 166L115 165z"/>
<path style="fill:#cc6265; stroke:none;" d="M50 166L51 167L50 166z"/>
<path style="fill:#c89f9e; stroke:none;" d="M55 166L56 167L55 166M114 166L115 167L114 166M49.3333 167.667L49.6667 168.333L49.3333 167.667z"/>
<path style="fill:#cc6265; stroke:none;" d="M54 167L55 168L54 167M109 167L110 168L109 167M113 167L114 168L113 167z"/>
<path style="fill:#c89f9e; stroke:none;" d="M54 168L55 169L54 168M108 168L106 174L107 174L108 168M113 168L114 169L113 168z"/>
<path style="fill:#cc6265; stroke:none;" d="M49 169L50 170L49 169z"/>
<path style="fill:#c89f9e; stroke:none;" d="M53 169L54 170L53 169z"/>
<path style="fill:#cc6265; stroke:none;" d="M112 169L113 170L112 169z"/>
<path style="fill:#c89f9e; stroke:none;" d="M48 170L49 171L48 170z"/>
<path style="fill:#cc6265; stroke:none;" d="M52 170L53 171L52 170M108 170L109 171L108 170M111 170L112 171L111 170M48 171L49 172L48 171z"/>
<path style="fill:#c89f9e; stroke:none;" d="M52 171L53 172L52 171M111 171L112 172L111 171M47.3333 172.667L47.6667 173.333L47.3333 172.667M51 172L52 173L51 172z"/>
<path style="fill:#cc6265; stroke:none;" d="M107 172L108 173L107 172M110 172L109 174L110 172M50 173L51 174L50 173z"/>
<path style="fill:#c89f9e; stroke:none;" d="M110 173L111 174L110 173z"/>
<path style="fill:#cc6265; stroke:none;" d="M47 174L48 175L47 174z"/>
<path style="fill:#c89f9e; stroke:none;" d="M50 174L51 175L50 174z"/>
<path style="fill:#cc6265; stroke:none;" d="M106 174L107 175L106 174z"/>
<path style="fill:#c89f9e; stroke:none;" d="M109 174L110 175L109 174M46 175L47 176L46 175z"/>
<path style="fill:#cc6265; stroke:none;" d="M49 175L50 176L49 175z"/>
<path style="fill:#c89f9e; stroke:none;" d="M105 175L104 179L105 179L105 175z"/>
<path style="fill:#cc6265; stroke:none;" d="M108 175L109 176L108 175M46 176L47 177L46 176z"/>
<path style="fill:#c89f9e; stroke:none;" d="M49 176L50 177L49 176M108 176L109 177L108 176M45.3333 177.667L45.6667 178.333L45.3333 177.667M48 177L47 180L48 177z"/>
<path style="fill:#cc6265; stroke:none;" d="M105 177L104 182L105 182L108 177L105 177M47 178L48 179L47 178z"/>
<path style="fill:#c89f9e; stroke:none;" d="M107 178L108 179L107 178M106 179L107 180L106 179M44 180L45 181L44 180M46 180L47 181L46 180M103 180L101 187C103.498 184.741 104.65 183.12 103 180z"/>
<path style="fill:#cc6265; stroke:none;" d="M44.6667 181.333L45.3333 181.667L44.6667 181.333z"/>
<path style="fill:#c89f9e; stroke:none;" d="M105 181L106 182L105 181M43 182L44 185L41 189L42 189L46 182L43 182z"/>
<path style="fill:#111212; stroke:none;" d="M44 182L45 183L44 182z"/>
<path style="fill:#cc6265; stroke:none;" d="M43.3333 183.667L43.6667 184.333L43.3333 183.667z"/>
</svg>
