<?xml version="1.0" standalone="yes"?>
<svg xmlns="http://www.w3.org/2000/svg" width="303" height="278">
<path style="fill:#fdfcfc; stroke:none;" d="M0 0L0 277L303 277L303 0L0 0z"/>
<path style="fill:#d1a1a2; stroke:none;" d="M125 32L125 33L163 33C154.354 27.8206 134.671 30.2046 125 32z"/>
<path style="fill:#8a5a58; stroke:none;" d="M131 32L132 33L131 32z"/>
<path style="fill:#b62930; stroke:none;" d="M62 48L64 108L124 107L113 94C125.24 88.4635 136.308 84.2065 150 85.8449C159.364 86.9655 167.842 89.9718 175.999 94.7608C206.944 112.928 212.819 158.939 189.755 185.741C168.57 210.358 129.334 211.508 105.039 191.334C96.7213 184.427 90.4405 174.069 86.7577 164C83.1549 154.149 83.0561 141.157 85.5039 131C86.7506 125.827 90.1073 121.371 90 116L94 112C86.6212 112 67.1418 116.814 61.4869 111.397C52.5825 102.866 63.7929 81.9431 57 72C42.2355 92.6143 31.01 115.045 31 141C30.9918 162.335 34.1658 182.049 44.6659 201C53.2121 216.424 65.3252 229.857 80 239.645C93.7623 248.824 109.534 255.379 126 257.715C161.958 262.815 200.452 251.824 225.83 224.961C273.485 174.517 265.879 86.542 205 49.4637C178.405 33.2661 147.245 28.2088 117 35.2353C106.261 37.7303 95.4635 42.178 86 47.8225C82.4987 49.9109 76.2996 56.1809 72 55.409C68.3589 54.7552 64.9742 50.0947 62 48z"/>
<path style="fill:#8a5a58; stroke:none;" d="M155.667 32.3333L156.333 32.6667L155.667 32.3333z"/>
<path style="fill:#d1a1a2; stroke:none;" d="M120 33L120 34L124 34L120 33z"/>
<path style="fill:#8a5a58; stroke:none;" d="M124 33L124 34L127 34L124 33M163 33L164 34L163 33z"/>
<path style="fill:#d1a1a2; stroke:none;" d="M164 33L164 34L168 34L164 33M109 36L109 37L119 35L109 36z"/>
<path style="fill:#8a5a58; stroke:none;" d="M119.667 34.3333L120.333 34.6667L119.667 34.3333M167.667 34.3333L168.333 34.6667L167.667 34.3333z"/>
<path style="fill:#d1a1a2; stroke:none;" d="M169 34L169 35L176 36L169 34z"/>
<path style="fill:#8a5a58; stroke:none;" d="M115 35L116 36L115 35M171.667 35.3333L172.333 35.6667L171.667 35.3333M112 36L113 37L112 36z"/>
<path style="fill:#d1a1a2; stroke:none;" d="M176 36L176 37L179 37L176 36M106.667 37.3333L107.333 37.6667L106.667 37.3333z"/>
<path style="fill:#8a5a58; stroke:none;" d="M108 37L109 38L108 37M179 37L180 38L179 37z"/>
<path style="fill:#d1a1a2; stroke:none;" d="M180.667 37.3333L181.333 37.6667L180.667 37.3333M90 44L90 45L105 39L90 44z"/>
<path style="fill:#8a5a58; stroke:none;" d="M105.667 38.3333L106.333 38.6667L105.667 38.3333M181.667 38.3333L182.333 38.6667L181.667 38.3333z"/>
<path style="fill:#d1a1a2; stroke:none;" d="M183 38L183 39L194 43L194 42L183 38z"/>
<path style="fill:#8a5a58; stroke:none;" d="M103 39L104 40L103 39M184 39L185 40L184 39M100 40L101 41L100 40M187 40L188 41L187 40M98 41L99 42L98 41M189 41L190 42L189 41M96 42L97 43L96 42M191 42L192 43L191 42M94 43L95 44L94 43M193 43L193 44L196 45L193 43z"/>
<path style="fill:#d1a1a2; stroke:none;" d="M195 43L196 44L195 43z"/>
<path style="fill:#8a5a58; stroke:none;" d="M92 44L93 45L92 44z"/>
<path style="fill:#d1a1a2; stroke:none;" d="M196.667 44.3333L197.333 44.6667L196.667 44.3333M82 50L90 46L82 50z"/>
<path style="fill:#8a5a58; stroke:none;" d="M197 45L197 46L200 47L197 45z"/>
<path style="fill:#d1a1a2; stroke:none;" d="M199 45L200 46L199 45z"/>
<path style="fill:#8a5a58; stroke:none;" d="M88 46L89 47L88 46z"/>
<path style="fill:#d1a1a2; stroke:none;" d="M200 46L200 47L205 49L205 48L200 46M61 47L61 70L62 70L62 48L66 51L61 47z"/>
<path style="fill:#8a5a58; stroke:none;" d="M86 47L87 48L86 47M201 47L202 48L201 47M84 48L85 49L84 48M203 48L204 49L203 48M83 49L84 50L83 49z"/>
<path style="fill:#d1a1a2; stroke:none;" d="M205 49L205 50L208 51L205 49M80 50L79 52L80 50z"/>
<path style="fill:#8a5a58; stroke:none;" d="M81 50L82 51L81 50M206 50L207 51L206 50M66 51L72 57L66 51z"/>
<path style="fill:#d1a1a2; stroke:none;" d="M67 51L68 52L67 51z"/>
<path style="fill:#8a5a58; stroke:none;" d="M80 51L81 52L80 51z"/>
<path style="fill:#d1a1a2; stroke:none;" d="M208 51L208 52L212 54L208 51M68 52L69 53L68 52M77 52L76 54L77 52z"/>
<path style="fill:#8a5a58; stroke:none;" d="M78 52L79 53L78 52z"/>
<path style="fill:#d1a1a2; stroke:none;" d="M69 53L70 54L69 53z"/>
<path style="fill:#8a5a58; stroke:none;" d="M77 53L78 54L77 53M210 53L211 54L210 53z"/>
<path style="fill:#d1a1a2; stroke:none;" d="M70 54L71 55L70 54M72 57L76 55L72 57z"/>
<path style="fill:#8a5a58; stroke:none;" d="M212 54L215 57L212 54z"/>
<path style="fill:#d1a1a2; stroke:none;" d="M213 54L214 55L213 54M71 55L72 56L71 55z"/>
<path style="fill:#8a5a58; stroke:none;" d="M74 55L75 56L74 55z"/>
<path style="fill:#d1a1a2; stroke:none;" d="M214 55L215 56L214 55z"/>
<path style="fill:#8a5a58; stroke:none;" d="M73 56L74 57L73 56z"/>
<path style="fill:#d1a1a2; stroke:none;" d="M215 56L216 57L215 56M216 57L231 73L232 73C229.034 66.6406 222.359 59.9656 216 57z"/>
<path style="fill:#8a5a58; stroke:none;" d="M219 60L220 61L219 60M220 61L221 62L220 61M221 62L222 63L221 62M222 63L223 64L222 63M223 64L224 65L223 64M224 65L225 66L224 65M225 66L226 67L225 66M226 67L227 68L226 67M227 68L228 69L227 68M228 69L229 70L228 69z"/>
<path style="fill:#d1a1a2; stroke:none;" d="M56 73L57 73L59 71L60 112L61 112L59 70L56 73z"/>
<path style="fill:#8a5a58; stroke:none;" d="M229 70L230 71L229 70M57 71L58 74L59 74L59 71L57 71M62 71L62 80L63 80L62 71z"/>
<path style="fill:#d1a1a2; stroke:none;" d="M55 73L48 84L49 84L55 73M232 73L235 78L236 78L232 73z"/>
<path style="fill:#8a5a58; stroke:none;" d="M55 74L56 75L55 74M232 74L233 75L232 74M54 75L55 76L54 75M233 75L234 76L233 75M53 76L54 77L53 76M234 76L235 77L234 76M52 78L53 79L52 78z"/>
<path style="fill:#d1a1a2; stroke:none;" d="M236 78L239 84L240 84L236 78z"/>
<path style="fill:#8a5a58; stroke:none;" d="M51 79L52 80L51 79M236 79L237 80L236 79z"/>
<path style="fill:#d1a1a2; stroke:none;" d="M62 80L62 99L63 99L62 80z"/>
<path style="fill:#8a5a58; stroke:none;" d="M50 81L51 82L50 81M237 81L238 82L237 81M49 82L50 83L49 82M238 82L239 83L238 82z"/>
<path style="fill:#d1a1a2; stroke:none;" d="M47 84L45 88L46 88L47 84M240 84L242 88L243 88L240 84z"/>
<path style="fill:#8a5a58; stroke:none;" d="M47 85L48 86L47 85M140 85L140 86L148 86L140 85M240 85L241 86L240 85M132 86L132 87L135 87L132 86z"/>
<path style="fill:#d1a1a2; stroke:none;" d="M135 86L135 87L157 88L135 86z"/>
<path style="fill:#8a5a58; stroke:none;" d="M153 86L153 87L156 87L153 86M46 87L47 88L46 87z"/>
<path style="fill:#7d262a; stroke:none;" d="M127 87L128 88L127 87z"/>
<path style="fill:#8a5a58; stroke:none;" d="M128 87L128 88L131 88L128 87z"/>
<path style="fill:#d1a1a2; stroke:none;" d="M131 87L131 88L135 88L131 87z"/>
<path style="fill:#8a5a58; stroke:none;" d="M157 87L157 88L160 88L157 87M241 87L242 88L241 87M45 88L46 89L45 88M122 89L122 90L127 89L122 89z"/>
<path style="fill:#d1a1a2; stroke:none;" d="M127.667 88.3333L128.333 88.6667L127.667 88.3333M159.667 88.3333L160.333 88.6667L159.667 88.3333z"/>
<path style="fill:#8a5a58; stroke:none;" d="M161 88L161 89L164 89L161 88M242 88L243 89L242 88z"/>
<path style="fill:#d1a1a2; stroke:none;" d="M44 89L37 105L38 105L44 89z"/>
<path style="fill:#8a5a58; stroke:none;" d="M63 89L64.6034 107.972L78 109L78 108L64 108L63 89z"/>
<path style="fill:#d1a1a2; stroke:none;" d="M124.667 89.3333L125.333 89.6667L124.667 89.3333M162 89L162 90L169 92L169 91L162 89z"/>
<path style="fill:#8a5a58; stroke:none;" d="M165 89L166 90L165 89z"/>
<path style="fill:#d1a1a2; stroke:none;" d="M243 89L250 105L251 105L243 89z"/>
<path style="fill:#8a5a58; stroke:none;" d="M44 90L45 91L44 90M120 90L121 91L120 90z"/>
<path style="fill:#d1a1a2; stroke:none;" d="M121 90L121 91L124 91L121 90z"/>
<path style="fill:#8a5a58; stroke:none;" d="M167 90L168 91L167 90M243 90L244 91L243 90M116 93L119 92L116 93z"/>
<path style="fill:#d1a1a2; stroke:none;" d="M119.667 91.3333L120.333 91.6667L119.667 91.3333z"/>
<path style="fill:#8a5a58; stroke:none;" d="M169 91L170 92L169 91M43 92L44 93L43 92z"/>
<path style="fill:#d1a1a2; stroke:none;" d="M117 92L118 93L117 92M170 92L171 93L170 92z"/>
<path style="fill:#8a5a58; stroke:none;" d="M171 92L172 93L171 92M244 92L245 93L244 92M114 93L117 99L114 93z"/>
<path style="fill:#d1a1a2; stroke:none;" d="M115.667 93.3333L116.333 93.6667L115.667 93.3333M172 93L172 94L176 96L176 95L172 93z"/>
<path style="fill:#8a5a58; stroke:none;" d="M173 93L174 94L173 93M42 94L43 95L42 94M59 94L59 105L60 105L59 94z"/>
<path style="fill:#d1a1a2; stroke:none;" d="M114.333 94.6667L114.667 95.3333L114.333 94.6667z"/>
<path style="fill:#8a5a58; stroke:none;" d="M175 94L175 95L180 98L175 94z"/>
<path style="fill:#7d262a; stroke:none;" d="M176 94L177 95L176 94z"/>
<path style="fill:#8a5a58; stroke:none;" d="M245 94L246 95L245 94z"/>
<path style="fill:#d1a1a2; stroke:none;" d="M141 99L142 99L143 96L147 98L146 95L141 99z"/>
<path style="fill:#8a5a58; stroke:none;" d="M41 96L42 97L41 96z"/>
<path style="fill:#d1a1a2; stroke:none;" d="M115 96L116 97L115 96z"/>
<path style="fill:#8a5a58; stroke:none;" d="M143 96L144 97L143 96z"/>
<path style="fill:#7d262a; stroke:none;" d="M144 96L141 104L146 102L157 123L158 123C158.222 118.1 155.843 112.653 151 111C151.506 107.913 151.223 106.368 148 106L144 96z"/>
<path style="fill:#d1a1a2; stroke:none;" d="M177 96L178 97L177 96z"/>
<path style="fill:#8a5a58; stroke:none;" d="M246 96L247 97L246 96z"/>
<path style="fill:#7d262a; stroke:none;" d="M114 97L115 98L114 97z"/>
<path style="fill:#d1a1a2; stroke:none;" d="M116 97L117 98L116 97z"/>
<path style="fill:#b62930; stroke:none;" d="M143 97L144 98L143 97z"/>
<path style="fill:#8a5a58; stroke:none;" d="M145 97L146 98L145 97z"/>
<path style="fill:#d1a1a2; stroke:none;" d="M178 97L179 98L178 97z"/>
<path style="fill:#8a5a58; stroke:none;" d="M40 98L41 99L40 98z"/>
<path style="fill:#d1a1a2; stroke:none;" d="M117 98L118 99L117 98z"/>
<path style="fill:#8a5a58; stroke:none;" d="M142 98L143 99L142 98M146 98L148 101L146 98z"/>
<path style="fill:#d1a1a2; stroke:none;" d="M179 98L179 99L191 109L179 98z"/>
<path style="fill:#8a5a58; stroke:none;" d="M181 98L183 100L181 98z"/>
<path style="fill:#7d262a; stroke:none;" d="M182 98L183 99L182 98z"/>
<path style="fill:#8a5a58; stroke:none;" d="M247 98L248 99L247 98z"/>
<path style="fill:#d1a1a2; stroke:none;" d="M118 99L119 100L118 99z"/>
<path style="fill:#8a5a58; stroke:none;" d="M141 99L140 102L141 99z"/>
<path style="fill:#b62930; stroke:none;" d="M144 99L145 100L144 99z"/>
<path style="fill:#d1a1a2; stroke:none;" d="M147 99L148 100L147 99z"/>
<path style="fill:#8a5a58; stroke:none;" d="M39.3333 100.667L39.6667 101.333L39.3333 100.667z"/>
<path style="fill:#d1a1a2; stroke:none;" d="M119 100L120 101L119 100M140 100L141 101L140 100M148 100L152 108L153 108L148 100z"/>
<path style="fill:#8a5a58; stroke:none;" d="M183 100L184 101L183 100M248 100L249 101L248 100z"/>
<path style="fill:#d1a1a2; stroke:none;" d="M120 101L121 102L120 101z"/>
<path style="fill:#b62930; stroke:none;" d="M147 101L148 102L147 101z"/>
<path style="fill:#8a5a58; stroke:none;" d="M184 101L185 102L184 101z"/>
<path style="fill:#d1a1a2; stroke:none;" d="M121.667 102.333L122.333 102.667L121.667 102.333M139 102L135 109L136 109L139 102z"/>
<path style="fill:#b62930; stroke:none;" d="M140 102L143 105L140 102M144.667 102.333L145.333 102.667L144.667 102.333z"/>
<path style="fill:#8a5a58; stroke:none;" d="M148 102L149 103L148 102M185 102L186 103L185 102M38 103L39 104L38 103z"/>
<path style="fill:#7d262a; stroke:none;" d="M115 103L115 104L120 106L115 103z"/>
<path style="fill:#8a5a58; stroke:none;" d="M122 103L123 104L122 103M139 103L140 104L139 103M143 103L144 104L143 103z"/>
<path style="fill:#d1a1a2; stroke:none;" d="M144 103L141 108L142 108L144 104L146 107L147 107L144 103z"/>
<path style="fill:#8a5a58; stroke:none;" d="M145 103L146 104L145 103M186 103L187 104L186 103M249 103L250 104L249 103z"/>
<path style="fill:#d1a1a2; stroke:none;" d="M123 104L124 105L123 104z"/>
<path style="fill:#7d262a; stroke:none;" d="M139 104L123.164 133L114 146C117.456 159.032 111.194 170.377 122.185 181.907C137.884 198.375 166.418 191.293 173.402 170C178.035 155.874 170.618 140.659 163 129L162 129C164.301 144.58 177.098 156.963 168.351 173C156.589 194.565 124.336 190.661 117.927 167C113.89 152.093 125.84 134.756 132.175 122C134.615 117.086 142.494 109.274 139 104z"/>
<path style="fill:#fdfcfc; stroke:none;" d="M144 104C137.692 113.564 132.337 123.749 127.248 134C121.312 145.957 114.397 161.178 122.13 173.996C135.206 195.671 171.135 185.776 170.515 160C170.279 150.159 164.041 138.632 159.752 130C155.446 121.331 150.653 111.082 144 104z"/>
<path style="fill:#8a5a58; stroke:none;" d="M146.333 104.667L146.667 105.333L146.333 104.667z"/>
<path style="fill:#b62930; stroke:none;" d="M148 104L148 106L150 104L148 104z"/>
<path style="fill:#8a5a58; stroke:none;" d="M187 104L188 105L187 104M37.3333 105.667L37.6667 106.333L37.3333 105.667z"/>
<path style="fill:#d1a1a2; stroke:none;" d="M124 105C124 108.551 116.025 107 113 107C101.421 107 89.7171 108 78 108L78 109C90.3733 109 102.717 108 115 108C116.845 108 129.705 108.204 124 105z"/>
<path style="fill:#b62930; stroke:none;" d="M138 105L139 106L138 105z"/>
<path style="fill:#8a5a58; stroke:none;" d="M150 105L151 106L150 105M188 105L189 106L188 105M250 105L251 106L250 105z"/>
<path style="fill:#d1a1a2; stroke:none;" d="M36 106L33 118L34 118L36 106z"/>
<path style="fill:#8a5a58; stroke:none;" d="M124 106L125 107L124 106M137 106L138 107L137 106M141 106L142 107L141 106M147 106L151 114L152 114L147 106M189 106L190 107L189 106z"/>
<path style="fill:#d1a1a2; stroke:none;" d="M251 106L252 111L253 111L251 106z"/>
<path style="fill:#7d262a; stroke:none;" d="M85 107L86 108L85 107z"/>
<path style="fill:#8a5a58; stroke:none;" d="M96 107L96 108L106 108L96 107M151 107L152 108L151 107M190 107L191 108L190 107M36.3333 108.667L36.6667 109.333L36.3333 108.667z"/>
<path style="fill:#d1a1a2; stroke:none;" d="M63 108L64 109L63 108z"/>
<path style="fill:#8a5a58; stroke:none;" d="M136 108L134 112L135 112L136 108M140 108L139 110L140 108z"/>
<path style="fill:#d1a1a2; stroke:none;" d="M147 108L148 109L147 108z"/>
<path style="fill:#8a5a58; stroke:none;" d="M152 108L153 109L152 108M251 108L252 109L251 108M59.3333 109.667L59.6667 110.333L59.3333 109.667z"/>
<path style="fill:#d1a1a2; stroke:none;" d="M64 109L64 110L69 110L64 109z"/>
<path style="fill:#b62930; stroke:none;" d="M136 109L137 110L136 109z"/>
<path style="fill:#d1a1a2; stroke:none;" d="M140 109L141 110L140 109M148.333 109.667L148.667 110.333L148.333 109.667z"/>
<path style="fill:#b62930; stroke:none;" d="M152 109L151 111L153 111L152 109z"/>
<path style="fill:#d1a1a2; stroke:none;" d="M153 109L155 113L156 113L153 109z"/>
<path style="fill:#8a5a58; stroke:none;" d="M191 109L193 111L191 109z"/>
<path style="fill:#d1a1a2; stroke:none;" d="M134 110L135 111L134 110M139 110L134 120L135 120L139 110z"/>
<path style="fill:#8a5a58; stroke:none;" d="M153 110L154 111L153 110z"/>
<path style="fill:#d1a1a2; stroke:none;" d="M191 110L192 111L191 110M72 111L72 112L91 112L72 111z"/>
<path style="fill:#8a5a58; stroke:none;" d="M91 111L91 112L94 112L91 111z"/>
<path style="fill:#d1a1a2; stroke:none;" d="M94 111L93 115L94 115L96 111L94 111M133 111L132 114L133 111z"/>
<path style="fill:#8a5a58; stroke:none;" d="M138 111L139 112L138 111z"/>
<path style="fill:#d1a1a2; stroke:none;" d="M144 111L142 114L145 112L147 116L148 116L144 111M149 111L150 112L149 111M192 111L193 112L192 111z"/>
<path style="fill:#8a5a58; stroke:none;" d="M252 111L253 112L252 111z"/>
<path style="fill:#d1a1a2; stroke:none;" d="M61 112L61 113L64 113L61 112z"/>
<path style="fill:#8a5a58; stroke:none;" d="M64 112L64 113L81 113L64 112M137.333 112.667L137.667 113.333L137.333 112.667M144 112L142 115L146 114L144 112M154 112L155 113L154 112z"/>
<path style="fill:#d1a1a2; stroke:none;" d="M193 112L195 115L193 112z"/>
<path style="fill:#7d262a; stroke:none;" d="M195 112L196 113L195 112z"/>
<path style="fill:#d1a1a2; stroke:none;" d="M253 112L254 118L255 118L253 112z"/>
<path style="fill:#8a5a58; stroke:none;" d="M93 113L94 114L93 113M133 113L134 114L133 113z"/>
<path style="fill:#7d262a; stroke:none;" d="M143 114L143 115L148 121L149 121L145 113L143 114z"/>
<path style="fill:#d1a1a2; stroke:none;" d="M150 113L151 114L150 113z"/>
<path style="fill:#8a5a58; stroke:none;" d="M155 113L157 116L155 113M194 113L195 114L194 113M132 114L130 119L131 119L132 114M136 114L137 115L136 114z"/>
<path style="fill:#b62930; stroke:none;" d="M144 114L143 118L150 123L144 114z"/>
<path style="fill:#d1a1a2; stroke:none;" d="M151 114L153 117L151 114M156 114L157 115L156 114z"/>
<path style="fill:#8a5a58; stroke:none;" d="M34 115L35 116L34 115M92 115L91 117L92 115z"/>
<path style="fill:#d1a1a2; stroke:none;" d="M131 115L132 116L131 115M141 115L135 126L136 126L141 115z"/>
<path style="fill:#8a5a58; stroke:none;" d="M146 115L147 116L146 115M152 115L153 116L152 115z"/>
<path style="fill:#d1a1a2; stroke:none;" d="M157 115L159 120L160 120L157 115M195.333 115.667L195.667 116.333L195.333 115.667z"/>
<path style="fill:#8a5a58; stroke:none;" d="M253.333 115.667L253.667 116.333L253.333 115.667z"/>
<path style="fill:#7d262a; stroke:none;" d="M90 116L91 117L90 116z"/>
<path style="fill:#d1a1a2; stroke:none;" d="M92 116L93 117L92 116z"/>
<path style="fill:#8a5a58; stroke:none;" d="M135 116L136 117L135 116M141 116L142 117L141 116z"/>
<path style="fill:#7d262a; stroke:none;" d="M142 116L140 122L141 122L142 116z"/>
<path style="fill:#8a5a58; stroke:none;" d="M147 116L149 119L147 116M153 116L155 119L153 116z"/>
<path style="fill:#b62930; stroke:none;" d="M156 116L157 117L156 116z"/>
<path style="fill:#8a5a58; stroke:none;" d="M196 116L198 119L196 116z"/>
<path style="fill:#d1a1a2; stroke:none;" d="M91 117L89 123L90 123L91 117M96 117L96 118L99 127L100 127C99.9861 122.917 100.52 118.322 96 117M130 117L131 118L130 117z"/>
<path style="fill:#b62930; stroke:none;" d="M134 117L133 120L134 120L134 117z"/>
<path style="fill:#8a5a58; stroke:none;" d="M144 117C140.628 121.292 133.3 130.603 136.164 136.366C138.853 141.778 154.661 145.811 158 140L161 142L158 136L156 136C149.235 142.821 144.344 132.389 139 129L144 118L151 126L150 120L149 120L150 123L144 117z"/>
<path style="fill:#d1a1a2; stroke:none;" d="M148 117L149 118L148 117z"/>
<path style="fill:#8a5a58; stroke:none;" d="M157 117L158 118L157 117z"/>
<path style="fill:#d1a1a2; stroke:none;" d="M189 120L190 120L192 118L195 151L196 151L196 146L203 146L201 161L202 161L204 144L195 146L201 144L201 143L194 143C194 136.002 194.358 126.831 192.889 120.028C192.136 116.543 189.645 117.004 189 120z"/>
<path style="fill:#8a5a58; stroke:none;" d="M33 118L33 121L34 121L33 118M90 118L91 119L90 118M96 118L96 121L97 121L98 118L96 118z"/>
<path style="fill:#d1a1a2; stroke:none;" d="M129 118L127 123L128 123L129 118z"/>
<path style="fill:#8a5a58; stroke:none;" d="M134 118L135 119L134 118M140 118L141 119L140 118z"/>
<path style="fill:#d1a1a2; stroke:none;" d="M144 118L139 129C145.193 134.931 149.078 142.026 158 136L154 132C151.306 133.103 150.775 131.582 150 129L154 130L152 122L151 122L151 126L144 118M149.333 118.667L149.667 119.333L149.333 118.667M153 118L154 119L153 118z"/>
<path style="fill:#8a5a58; stroke:none;" d="M190.667 118.333L191.333 118.667L190.667 118.333z"/>
<path style="fill:#d1a1a2; stroke:none;" d="M196 118L197 119L196 118z"/>
<path style="fill:#8a5a58; stroke:none;" d="M254 118L254 121L255 121L254 118z"/>
<path style="fill:#d1a1a2; stroke:none;" d="M32 119L32 122L33 122L32 119M95 119L94 143L87 143L87 144L93 146L84 145L85 157L86 157L85 146L92 146L92 151L93 151C94.249 141.19 99.0823 128.729 95 119z"/>
<path style="fill:#b62930; stroke:none;" d="M97 119L96 136L99 136L97 119z"/>
<path style="fill:#8a5a58; stroke:none;" d="M139 119L140 120L139 119z"/>
<path style="fill:#b62930; stroke:none;" d="M148 119L149 120L148 119z"/>
<path style="fill:#d1a1a2; stroke:none;" d="M154 119L156 122L154 119z"/>
<path style="fill:#8a5a58; stroke:none;" d="M158 119L159 120L158 119z"/>
<path style="fill:#b62930; stroke:none;" d="M190 119L190 138L189 138L189 135L188 135L188 143L191 142L192 147L193 147L192 119L190 119z"/>
<path style="fill:#d1a1a2; stroke:none;" d="M197 119L198 123L199 123L197 119M255 119L255 122L256 122L255 119z"/>
<path style="fill:#8a5a58; stroke:none;" d="M89 120L90 121L89 120M98 120L98 124L99 124L98 120M129 120L130 121L129 120M133 120L131 124L132 124L133 120z"/>
<path style="fill:#b62930; stroke:none;" d="M139 120L141 123L139 120z"/>
<path style="fill:#d1a1a2; stroke:none;" d="M150.333 120.667L150.667 121.333L150.333 120.667z"/>
<path style="fill:#8a5a58; stroke:none;" d="M155 120L156 121L155 120M159 120L161 125L158 125L158 126L162 134L163 134L161 127L162 127L165 133L166 133L159 120M189 120L189 125L190 125L189 120M198 120L199 121L198 120z"/>
<path style="fill:#7d262a; stroke:none;" d="M199.333 120.667L199.667 121.333L199.333 120.667M96 121L97 122L96 121z"/>
<path style="fill:#d1a1a2; stroke:none;" d="M133 121L134 122L133 121z"/>
<path style="fill:#8a5a58; stroke:none;" d="M138 121L139 122L138 121M156 121L158 124L156 121z"/>
<path style="fill:#b62930; stroke:none;" d="M158 121L160 125L158 121z"/>
<path style="fill:#d1a1a2; stroke:none;" d="M160 121L161 122L160 121M188 121L188 128L189 128L188 121z"/>
<path style="fill:#8a5a58; stroke:none;" d="M32 122L32 125L33 125L32 122M128 122L129 123L128 122z"/>
<path style="fill:#7d262a; stroke:none;" d="M138 122L130 139C134.157 136.285 140.333 126.791 138 122z"/>
<path style="fill:#8a5a58; stroke:none;" d="M199.333 122.667L199.667 123.333L199.333 122.667M255 122L255 125L256 125L255 122z"/>
<path style="fill:#d1a1a2; stroke:none;" d="M31 123L31 168L32 168L30.0895 143L31 123z"/>
<path style="fill:#8a5a58; stroke:none;" d="M88 123L86 129L87 129L88 123M127 123L126 126L127 123z"/>
<path style="fill:#d1a1a2; stroke:none;" d="M132 123L133 124L132 123z"/>
<path style="fill:#8a5a58; stroke:none;" d="M137 123L138 124L137 123z"/>
<path style="fill:#d1a1a2; stroke:none;" d="M156 123L157 124L156 123M161 123L162 124L161 123M256 123L255 172L256 172C258.752 157.393 262.76 137.066 256 123M88.3333 124.667L88.6667 125.333L88.3333 124.667M126 124L127 125L126 124M131 124L121 147L122 147L131 124M157.333 124.667L157.667 125.333L157.333 124.667z"/>
<path style="fill:#7d262a; stroke:none;" d="M160 124L161 125L160 124z"/>
<path style="fill:#d1a1a2; stroke:none;" d="M199.333 124.667L199.667 125.333L199.333 124.667z"/>
<path style="fill:#7d262a; stroke:none;" d="M96 125L96 129L97 129L96 125z"/>
<path style="fill:#d1a1a2; stroke:none;" d="M125 125L124 129L125 129L125 125z"/>
<path style="fill:#8a5a58; stroke:none;" d="M130 125L131 126L130 125M136 125L137 126L136 125z"/>
<path style="fill:#d1a1a2; stroke:none;" d="M162 125L163 126L162 125z"/>
<path style="fill:#8a5a58; stroke:none;" d="M200.333 125.667L200.667 126.333L200.333 125.667M135 126L136 127L135 126z"/>
<path style="fill:#d1a1a2; stroke:none;" d="M158.333 126.667L158.667 127.333L158.333 126.667M163.333 126.667L163.667 127.333L163.333 126.667M87.3333 127.667L87.6667 128.333L87.3333 127.667z"/>
<path style="fill:#8a5a58; stroke:none;" d="M99 127L99 137L100 137L99 127M125.333 127.667L125.667 128.333L125.333 127.667M129 127L130 128L129 127z"/>
<path style="fill:#d1a1a2; stroke:none;" d="M134 127L135 128L134 127z"/>
<path style="fill:#b62930; stroke:none;" d="M135 127L136 128L135 127M137 127L138 128L137 127M161 127L161 129L163 129L161 127z"/>
<path style="fill:#d1a1a2; stroke:none;" d="M200 127L201 133L202 133L200 127z"/>
<path style="fill:#7d262a; stroke:none;" d="M98 128L98 131L99 131L98 128z"/>
<path style="fill:#b62930; stroke:none;" d="M128 128L129 129L128 128z"/>
<path style="fill:#8a5a58; stroke:none;" d="M134 128L130 137L131 137L134 128z"/>
<path style="fill:#d1a1a2; stroke:none;" d="M159.333 128.667L159.667 129.333L159.333 128.667M164.333 128.667L164.667 129.333L164.333 128.667z"/>
<path style="fill:#8a5a58; stroke:none;" d="M188 128L188 135L189 135L188 128M201 128L202 129L201 128M256 128L256 131L257 131L256 128M31 129L31 132L32 132L31 129z"/>
<path style="fill:#d1a1a2; stroke:none;" d="M86 129L86 133L87 133L86 129z"/>
<path style="fill:#8a5a58; stroke:none;" d="M124 129L122 134L123 134L124 129z"/>
<path style="fill:#b62930; stroke:none;" d="M126 129L127 130L126 129z"/>
<path style="fill:#8a5a58; stroke:none;" d="M128 129L129 130L128 129z"/>
<path style="fill:#d1a1a2; stroke:none;" d="M133 129L134 130L133 129z"/>
<path style="fill:#7d262a; stroke:none;" d="M189 129L189 138L190 138L189 129M206 129L206 132L207 132L206 129M85 130L86 131L85 130z"/>
<path style="fill:#d1a1a2; stroke:none;" d="M123 130L124 131L123 130M160.333 130.667L160.667 131.333L160.333 130.667z"/>
<path style="fill:#8a5a58; stroke:none;" d="M85 131L85 134L86 134L85 131z"/>
<path style="fill:#d1a1a2; stroke:none;" d="M100 131L100 138L101 138L100 131z"/>
<path style="fill:#8a5a58; stroke:none;" d="M127 131L128 132L127 131z"/>
<path style="fill:#d1a1a2; stroke:none;" d="M132 131L133 132L132 131M165 131L166 132L165 131z"/>
<path style="fill:#7d262a; stroke:none;" d="M98.3333 132.667L98.6667 133.333L98.3333 132.667z"/>
<path style="fill:#d1a1a2; stroke:none;" d="M122 132L123 133L122 132M161.333 132.667L161.667 133.333L161.333 132.667M166 132L168 138L169 138L166 132M187 132L187 139L188 139L187 132z"/>
<path style="fill:#8a5a58; stroke:none;" d="M202.333 132.667L202.667 133.333L202.333 132.667z"/>
<path style="fill:#d1a1a2; stroke:none;" d="M121 133L120 137L121 137L121 133z"/>
<path style="fill:#8a5a58; stroke:none;" d="M126 133L127 134L126 133z"/>
<path style="fill:#d1a1a2; stroke:none;" d="M131 133L132 134L131 133z"/>
<path style="fill:#b62930; stroke:none;" d="M134 133L129 139L128 146L128 147L139 143C140.927 145.895 142.987 145.82 145 143L155 144L155 143C146.016 141.731 139.74 139.994 134 133z"/>
<path style="fill:#d1a1a2; stroke:none;" d="M85 134L85 143L86 143L85 134z"/>
<path style="fill:#b62930; stroke:none;" d="M122 134L123 135L122 134z"/>
<path style="fill:#8a5a58; stroke:none;" d="M125.333 134.667L125.667 135.333L125.333 134.667z"/>
<path style="fill:#d1a1a2; stroke:none;" d="M130.333 134.667L130.667 135.333L130.333 134.667M162 134L164 141L165 141L162 134z"/>
<path style="fill:#8a5a58; stroke:none;" d="M166 134L167 135L166 134z"/>
<path style="fill:#d1a1a2; stroke:none;" d="M202 134L202 143L203 143L202 134z"/>
<path style="fill:#7d262a; stroke:none;" d="M206 134L206 137L207 137L206 134M97 135L96 144L97 144L97 135z"/>
<path style="fill:#d1a1a2; stroke:none;" d="M107 139L108 139L112 138C112.728 133.615 108.094 136.712 107 139z"/>
<path style="fill:#8a5a58; stroke:none;" d="M121 135L122 136L121 135M163 135L164 136L163 135z"/>
<path style="fill:#d1a1a2; stroke:none;" d="M172 143L171 141L170 141L173 144L176 136L177 136C178.865 139.214 183.15 146.139 187 142C179.717 141.683 174.996 130.653 172 143z"/>
<path style="fill:#8a5a58; stroke:none;" d="M192 135L193 147L191 154L192 154L193 149L194 149L194 156L195 156L192 135M84 136L84 142L85 142L84 136M109 136L107 141L108 141L109 136z"/>
<path style="fill:#7d262a; stroke:none;" d="M110 136L107 142L108 142L110 136z"/>
<path style="fill:#8a5a58; stroke:none;" d="M111 136L113 142L114 142L111 136z"/>
<path style="fill:#d1a1a2; stroke:none;" d="M129 136L127 142L128 142L129 136M158 136L160 139L158 136z"/>
<path style="fill:#8a5a58; stroke:none;" d="M167.333 136.667L167.667 137.333L167.333 136.667M176 136L174 140L175 140L176 137L179 139L176 136M95 137L93 156L94 156L95 146L96 146L96 156L97 156L97 144L98 144L98 146L99 146L98 141L97 144L96 144L95 137z"/>
<path style="fill:#b62930; stroke:none;" d="M99 137C97.0411 140.236 98.2306 141.694 101 144L99 137M110 137C108.04 140.737 97.5496 146.743 102 150C103.327 145.741 107.647 142.811 112 142L110 137z"/>
<path style="fill:#8a5a58; stroke:none;" d="M120 137L119 141L120 141L120 137M124 137L125 138L124 137z"/>
<path style="fill:#7d262a; stroke:none;" d="M175 139L178 139L177 137L175 139z"/>
<path style="fill:#8a5a58; stroke:none;" d="M203 137L203 140L204 140L203 137M100 138L100 143L101 143L100 138z"/>
<path style="fill:#7d262a; stroke:none;" d="M111 138L112 143L113 143L111 138z"/>
<path style="fill:#d1a1a2; stroke:none;" d="M119 138L120 139L119 138z"/>
<path style="fill:#8a5a58; stroke:none;" d="M129 138L130 139L129 138M133 138L133 141L134 141L135 138L133 138M164 138L165 139L164 138M168 138L169 142L170 142L168 138M30 139L30 152L31 152L30 139z"/>
<path style="fill:#d1a1a2; stroke:none;" d="M113 139L114 140L113 139z"/>
<path style="fill:#8a5a58; stroke:none;" d="M123 139L124 140L123 139z"/>
<path style="fill:#d1a1a2; stroke:none;" d="M160.333 139.667L160.667 140.333L160.333 139.667M169 139L170 140L169 139z"/>
<path style="fill:#b62930; stroke:none;" d="M173 148L174 148L179 139C173.873 139.836 172.569 143.075 173 148z"/>
<path style="fill:#8a5a58; stroke:none;" d="M187 139L186 145L187 139M257 139L257 153L258 153L257 139z"/>
<path style="fill:#d1a1a2; stroke:none;" d="M101 140L101 144L107 140L106 140C103.966 142.494 103.206 142.206 101 140M118 140L116 144L115 141L114 141L115 145L117 145L118 140z"/>
<path style="fill:#8a5a58; stroke:none;" d="M128 140L127 144L128 144L128 140z"/>
<path style="fill:#7d262a; stroke:none;" d="M129 140C126.529 146.024 124.437 151.499 123.583 158C120.147 184.169 160.056 187.866 165.329 163C166.238 158.718 165.364 155.073 163.996 151C162.589 146.811 161.291 143.008 158 140C155.061 145.065 150.074 144.27 145 143C142.53 145.101 141.427 145.145 139 143L128 147L128 146C130.43 144.13 130.634 142.55 129 140z"/>
<path style="fill:#8a5a58; stroke:none;" d="M165 140L167 146L168 146L165 140M179 140L183 144L179 140z"/>
<path style="fill:#7d262a; stroke:none;" d="M188 140L189 141L188 140z"/>
<path style="fill:#8a5a58; stroke:none;" d="M110 141L112 145L113 145L110 141z"/>
<path style="fill:#d1a1a2; stroke:none;" d="M161 141L162 145L163 145L161 141z"/>
<path style="fill:#8a5a58; stroke:none;" d="M173 141L174 142L173 141M175 144L176 144L179 143L175 144z"/>
<path style="fill:#7d262a; stroke:none;" d="M178 141L180 143L180 141L178 141z"/>
<path style="fill:#8a5a58; stroke:none;" d="M203 141L204 142L203 141M106 142L107 143L106 142z"/>
<path style="fill:#d1a1a2; stroke:none;" d="M109 142L109 143L109 144C115.733 144 112 157.107 112 161C112 172.472 120.004 187.474 132 190L132 189C122.769 183.324 115.656 176.079 113.62 165C112.159 157.055 117.914 147.15 109 142z"/>
<path style="fill:#b62930; stroke:none;" d="M113 142L114 148L115 148L113 142z"/>
<path style="fill:#8a5a58; stroke:none;" d="M118 142L119 143L118 142M122 142L123 143L122 142z"/>
<path style="fill:#b62930; stroke:none;" d="M157 142L158 143L157 142z"/>
<path style="fill:#d1a1a2; stroke:none;" d="M165 142L166 143L165 142M176 142C173.203 150.824 176.351 159.151 174.319 168C169.78 187.775 150.365 193.368 133 190L133 191C150.266 196.473 171.112 187.988 175.471 169C177.488 160.21 174.238 151.716 177 143L186 152L190 151L192 163L194 163L195 156L194 156L194 162L192 162L191 143L190 143L189 151L178 142L176 142z"/>
<path style="fill:#b62930; stroke:none;" d="M180 142L179 143L188 150C187.216 145.081 184.263 143.951 180 142z"/>
<path style="fill:#8a5a58; stroke:none;" d="M189 142L189 146L190 146L191 142L189 142M84 144L84 145L93 146L84 144z"/>
<path style="fill:#7d262a; stroke:none;" d="M99 143L99 148L100 148L102 145L99 143z"/>
<path style="fill:#8a5a58; stroke:none;" d="M105 143L106 144L105 143z"/>
<path style="fill:#7d262a; stroke:none;" d="M107 143L104 145L104 146L107 143z"/>
<path style="fill:#8a5a58; stroke:none;" d="M108 143L107 146L108 143z"/>
<path style="fill:#fdfcfc; stroke:none;" d="M110 143L98 151L97 163C91.7337 159.923 92.441 151.588 92 146L85 146C87.6587 160.321 89.3627 172.363 99.3009 184C120.841 209.223 162.718 210.7 185.961 186.985C198.15 174.549 199.248 161.761 203 146L196 146L194 163L192 163L190 151L186 152L177 143C172.889 152.742 178.351 163.122 173.672 173C162.627 196.317 131.091 199.707 117.213 177C110.266 165.633 116.861 153.214 110 143z"/>
<path style="fill:#8a5a58; stroke:none;" d="M114 143L115 144L114 143z"/>
<path style="fill:#d1a1a2; stroke:none;" d="M126 143L124 149L125 149L126 143z"/>
<path style="fill:#8a5a58; stroke:none;" d="M161.333 143.667L161.667 144.333L161.333 143.667M170 143L171 144L170 143z"/>
<path style="fill:#7d262a; stroke:none;" d="M188 143L188 150L189 150L188 143z"/>
<path style="fill:#8a5a58; stroke:none;" d="M195 146L204 144L195 146z"/>
<path style="fill:#d1a1a2; stroke:none;" d="M97 144L97 156L98 156L98 151L108 147L108 146L99 151L97 144z"/>
<path style="fill:#8a5a58; stroke:none;" d="M101.667 144.333L102.333 144.667L101.667 144.333M117 144L118 145L117 144M121 144L122 145L121 144z"/>
<path style="fill:#7d262a; stroke:none;" d="M132 144L133 145L132 144z"/>
<path style="fill:#d1a1a2; stroke:none;" d="M166.333 144.667L166.667 145.333L166.333 144.667z"/>
<path style="fill:#8a5a58; stroke:none;" d="M171.667 144.333L172.333 144.667L171.667 144.333M179 144L180 145L179 144z"/>
<path style="fill:#d1a1a2; stroke:none;" d="M108 145L109 146L108 145z"/>
<path style="fill:#8a5a58; stroke:none;" d="M115.667 145.333L116.333 145.667L115.667 145.333M126 145L127 146L126 145M162.333 145.667L162.667 146.333L162.333 145.667M180 145L181 146L180 145z"/>
<path style="fill:#7d262a; stroke:none;" d="M181 145L182 146L181 145M192 145L193 146L192 145z"/>
<path style="fill:#b62930; stroke:none;" d="M95 146L95 151L96 151L95 146z"/>
<path style="fill:#7d262a; stroke:none;" d="M102.333 146.667L102.667 147.333L102.333 146.667z"/>
<path style="fill:#8a5a58; stroke:none;" d="M103 146L104 147L103 146M120.333 146.667L120.667 147.333L120.333 146.667z"/>
<path style="fill:#d1a1a2; stroke:none;" d="M163 146L164 150L165 150L163 146M167 146L170 159L171 159L167 146z"/>
<path style="fill:#8a5a58; stroke:none;" d="M174 146L175 147L174 146M184 146L185 147L184 146M113 147L114 148L113 147M125.333 147.667L125.667 148.333L125.333 147.667M168.333 147.667L168.667 148.333L168.333 147.667M102 148L103 149L102 148M114.333 148.667L114.667 149.333L114.333 148.667z"/>
<path style="fill:#d1a1a2; stroke:none;" d="M120.333 148.667L120.667 149.333L120.333 148.667z"/>
<path style="fill:#8a5a58; stroke:none;" d="M163.333 148.667L163.667 149.333L163.333 148.667M173 148L173 153L174 153L173 148M185 148L186 149L185 148M99 149L99 151L101 151L99 149M119.333 149.667L119.667 150.333L119.333 149.667M124 149L123 155L124 155L124 149z"/>
<path style="fill:#b62930; stroke:none;" d="M193 149L194 150L193 149z"/>
<path style="fill:#7d262a; stroke:none;" d="M94 150L94 155L95 155L94 150z"/>
<path style="fill:#d1a1a2; stroke:none;" d="M123.333 150.667L123.667 151.333L123.333 150.667z"/>
<path style="fill:#8a5a58; stroke:none;" d="M164 150L164 153L165 153L164 150M169.333 150.667L169.667 151.333L169.333 150.667M187.667 150.333L188.333 150.667L187.667 150.333z"/>
<path style="fill:#7d262a; stroke:none;" d="M193 150L193 155L194 155L193 150z"/>
<path style="fill:#8a5a58; stroke:none;" d="M84 151L84 154L85 154L84 151z"/>
<path style="fill:#b62930; stroke:none;" d="M115 151L116 152L115 151z"/>
<path style="fill:#d1a1a2; stroke:none;" d="M119 151C116.689 162.919 118.691 169.765 125 180L126 180L119.276 165.015L119 151M165 151C165.847 157.7 166.784 163.912 163.005 170C153.008 186.106 131.945 182.94 124 167L123 167C127.61 181.439 144.55 186.553 156.985 178.66C165.123 173.495 170.929 159.678 165 151z"/>
<path style="fill:#8a5a58; stroke:none;" d="M203 151L203 155L204 155L203 151M118.333 152.667L118.667 153.333L118.333 152.667z"/>
<path style="fill:#b62930; stroke:none;" d="M95 153L95 161L96 161L95 153z"/>
<path style="fill:#8a5a58; stroke:none;" d="M114.333 153.667L114.667 154.333L114.333 153.667M170.333 153.667L170.667 154.333L170.333 153.667z"/>
<path style="fill:#b62930; stroke:none;" d="M192 153L192 159L193 159L192 153z"/>
<path style="fill:#d1a1a2; stroke:none;" d="M122 154L122 166L123 166L122 154z"/>
<path style="fill:#8a5a58; stroke:none;" d="M165.333 154.667L165.667 155.333L165.333 154.667M174.333 154.667L174.667 155.333L174.333 154.667z"/>
<path style="fill:#b62930; stroke:none;" d="M123 155L123 159L124 159L123 155z"/>
<path style="fill:#d1a1a2; stroke:none;" d="M93 156L93 161L94 161L93 156M96 156L94 162L94 163C97.6016 162.228 97.659 158.88 96 156z"/>
<path style="fill:#8a5a58; stroke:none;" d="M117 156L117 159L118 159L117 156M171 156L171 165L172 165L171 156M85 157L85 160L86 160L85 157M94 157L96 162L94 157M113 157L113 165L114 165L113 157M122 157L122 163L123 163L122 157M193 157L192 162L193 157z"/>
<path style="fill:#d1a1a2; stroke:none;" d="M86 158L86 161L87 161L86 158z"/>
<path style="fill:#8a5a58; stroke:none;" d="M202.333 158.667L202.667 159.333L202.333 158.667M31 159L31 162L32 162L31 159z"/>
<path style="fill:#7d262a; stroke:none;" d="M85.3333 160.667L85.6667 161.333L85.3333 160.667z"/>
<path style="fill:#8a5a58; stroke:none;" d="M256 160L256 163L257 163L256 160M86.3333 161.667L86.6667 162.333L86.3333 161.667M201 161L200 166L201 166L201 161z"/>
<path style="fill:#d1a1a2; stroke:none;" d="M87.3333 162.667L87.6667 163.333L87.3333 162.667z"/>
<path style="fill:#8a5a58; stroke:none;" d="M117 162L117 166L118 166L117 162M165 162L165 165L166 165L165 162z"/>
<path style="fill:#d1a1a2; stroke:none;" d="M170 162C165.23 185.047 146.034 190.013 127 180C136.574 191.169 155.69 188.556 164.671 177.985C168.15 173.889 171.938 167.417 170 162M200.333 162.667L200.667 163.333L200.333 162.667z"/>
<path style="fill:#8a5a58; stroke:none;" d="M87 164L88 169L89 169L87 164M123 164L123 167L124 167L123 164z"/>
<path style="fill:#d1a1a2; stroke:none;" d="M88.3333 165.667L88.6667 166.333L88.3333 165.667z"/>
<path style="fill:#8a5a58; stroke:none;" d="M174 165L174 168L175 168L174 165z"/>
<path style="fill:#d1a1a2; stroke:none;" d="M199 165C193.155 182.137 178.979 195.218 162 201L162 202C175.181 198.869 187.067 189.397 194.185 178C196.556 174.204 199.951 169.596 199 165z"/>
<path style="fill:#8a5a58; stroke:none;" d="M164.333 166.667L164.667 167.333L164.333 166.667M170 166L170 169L171 169L170 166M255 166L255 169L256 169L255 166z"/>
<path style="fill:#d1a1a2; stroke:none;" d="M89 167C94.7662 198.952 134.481 207.996 161 203L161 202C137.892 203.826 118.272 203.457 101.09 184.999C96.0079 179.539 93.1017 173.069 89 167z"/>
<path style="fill:#8a5a58; stroke:none;" d="M114 167L114 170L115 170L114 167M124.333 167.667L124.667 168.333L124.333 167.667M199.333 167.667L199.667 168.333L199.333 167.667M32 168L33 169L32 168M118.333 168.667L118.667 169.333L118.333 168.667z"/>
<path style="fill:#d1a1a2; stroke:none;" d="M32 169L32 172L33 172L32 169z"/>
<path style="fill:#8a5a58; stroke:none;" d="M125.333 169.667L125.667 170.333L125.333 169.667M163 169L164 170L163 169M89 170L90 171L89 170M115.333 170.667L115.667 171.333L115.333 170.667M162.333 170.667L162.667 171.333L162.333 170.667M169 170L170 171L169 170M173.333 170.667L173.667 171.333L173.333 170.667M198 170L199 171L198 170M33.3333 171.667L33.6667 172.333L33.3333 171.667M119 171L120 172L119 171M126 171L127 172L126 171M254.333 171.667L254.667 172.333L254.333 171.667M90 172L91 173L90 172M127 172L128 173L127 172M161 172L162 173L161 172M168.333 172.667L168.667 173.333L168.333 172.667M172.333 172.667L172.667 173.333L172.333 172.667M197 172L198 173L197 172z"/>
<path style="fill:#d1a1a2; stroke:none;" d="M33 173L40 195L41 195L33 173z"/>
<path style="fill:#8a5a58; stroke:none;" d="M116 173L117 174L116 173M120 173L121 174L120 173M160 173L161 174L160 173z"/>
<path style="fill:#d1a1a2; stroke:none;" d="M254 173L247 195L248 195C250.345 188.953 256.287 179.447 254 173z"/>
<path style="fill:#8a5a58; stroke:none;" d="M91 174L92 175L91 174M121.333 174.667L121.667 175.333L121.333 174.667M128 174L129 175L128 174M159 174L160 175L159 174M167 174L168 175L167 174M171.333 174.667L171.667 175.333L171.333 174.667M196 174L197 175L196 174M34 175L35 176L34 175M92.3333 175.667L92.6667 176.333L92.3333 175.667M117 175L118 176L117 175M129 175L130 176L129 175M158 175L159 176L158 175M166.333 175.667L166.667 176.333L166.333 175.667M195.333 175.667L195.667 176.333L195.333 175.667M253.333 175.667L253.667 176.333L253.333 175.667M122 176L123 177L122 176M131 176L132 177L131 176M157 176L158 177L157 176M170.333 176.667L170.667 177.333L170.333 176.667M93 177L94 178L93 177M118 177L119 178L118 177M123 177L124 178L123 177M132 177L133 178L132 177M155.667 177.333L156.333 177.667L155.667 177.333M165 177L166 178L165 177M194 177L195 178L194 177M119 178L120 179L119 178M124.333 178.667L124.667 179.333L124.333 178.667M134 178L135 179L134 178M154 178L155 179L154 178M164 178L165 179L164 178M169 178L170 179L169 178M35 179L36 180L35 179M94 179L95 180L94 179M136 179L137 180L136 179M151.667 179.333L152.333 179.667L151.667 179.333M163 179L164 180L163 179M168 179L169 180L168 179M193 179L194 180L193 179M252 179L253 180L252 179M95 180L96 181L95 180M120 180L121 181L120 180M126 180L127 181L126 180M139 180L139 181L150 181L139 180M162 180L163 181L162 180M167 180L168 181L167 180M192 180L193 181L192 180M96 181L97 182L96 181M121 181L122 182L121 181M127 181L128 182L127 181M161 181L162 182L161 181z"/>
<path style="fill:#7d262a; stroke:none;" d="M193 181L194 182L193 181z"/>
<path style="fill:#8a5a58; stroke:none;" d="M36 182L37 183L36 182M122 182L123 183L122 182M128 182L129 183L128 182M160 182L161 183L160 182M165.667 182.333L166.333 182.667L165.667 182.333M191 182L186 188L191 182M251 182L252 183L251 182M97 183L98 184L97 183M123 183L124 184L123 183M130 183L131 184L130 183M158 183L159 184L158 183M164 183L165 184L164 183z"/>
<path style="fill:#7d262a; stroke:none;" d="M191 183L189 187L191 183z"/>
<path style="fill:#8a5a58; stroke:none;" d="M98 184L99 185L98 184M124 184L125 185L124 184M131.667 184.333L132.333 184.667L131.667 184.333z"/>
<path style="fill:#d1a1a2; stroke:none;" d="M145 184L146 185L145 184z"/>
<path style="fill:#8a5a58; stroke:none;" d="M156 184L157 185L156 184M163 184L164 185L163 184M37 185L38 186L37 185M99 185L100 186L99 185M126 185L127 186L126 185M133.667 185.333L134.333 185.667L133.667 185.333M154 185L155 186L154 185M162 185L163 186L162 185M250 185L251 186L250 185M100 186L101 187L100 186M127 186L128 187L127 186M136 186L137 187L136 186M151.667 186.333L152.333 186.667L151.667 186.333M161 186L162 187L161 186M38 187L39 188L38 187M101 187L105 191L101 187M129 187L130 188L129 187M141 187L141 188L148 188L141 187M159 187L160 188L159 187z"/>
<path style="fill:#7d262a; stroke:none;" d="M187.667 187.333L188.333 187.667L187.667 187.333z"/>
<path style="fill:#8a5a58; stroke:none;" d="M249 187L250 188L249 187M131 188L132 189L131 188M157 188L158 189L157 188M185 188L178 194L178 195L185 188M132 189L132 190L135 190L132 189M154.667 189.333L155.333 189.667L154.667 189.333z"/>
<path style="fill:#7d262a; stroke:none;" d="M185.333 189.667L185.667 190.333L185.333 189.667z"/>
<path style="fill:#8a5a58; stroke:none;" d="M39 190L40 191L39 190M135 190L135 191L138 191L135 190M150 190L150 191L154 191L150 190M248 190L249 191L248 190M105 191L106 192L105 191M140 191L140 192L149 192L140 191z"/>
<path style="fill:#7d262a; stroke:none;" d="M182 193L185 191L182 193z"/>
<path style="fill:#8a5a58; stroke:none;" d="M40 192L41 193L40 192M106 192L107 193L106 192M247 192L248 193L247 192M107.667 193.333L108.333 193.667L107.667 193.333z"/>
<path style="fill:#7d262a; stroke:none;" d="M181 193L182 194L181 193z"/>
<path style="fill:#8a5a58; stroke:none;" d="M41 194L43 197L41 194M109 194L110 195L109 194z"/>
<path style="fill:#d1a1a2; stroke:none;" d="M140 194L140 195L145 195L145 196L141 196L141 197C144.535 197.462 146.032 197.001 148 194L140 194z"/>
<path style="fill:#7d262a; stroke:none;" d="M179.667 194.333L180.333 194.667L179.667 194.333z"/>
<path style="fill:#8a5a58; stroke:none;" d="M246.333 194.667L246.667 195.333L246.333 194.667M110 195L111 196L110 195M177 195L178 196L177 195z"/>
<path style="fill:#d1a1a2; stroke:none;" d="M41 196L42 197L41 196z"/>
<path style="fill:#7d262a; stroke:none;" d="M111 196L112 197L111 196z"/>
<path style="fill:#8a5a58; stroke:none;" d="M112 196L113 197L112 196M175 196L176 197L175 196z"/>
<path style="fill:#d1a1a2; stroke:none;" d="M246 196L247 197L246 196M42.3333 197.667L42.6667 198.333L42.3333 197.667z"/>
<path style="fill:#8a5a58; stroke:none;" d="M114 197L115 198L114 197M173 197L174 198L173 197z"/>
<path style="fill:#d1a1a2; stroke:none;" d="M245.333 197.667L245.667 198.333L245.333 197.667z"/>
<path style="fill:#8a5a58; stroke:none;" d="M116 198L117 199L116 198M171.667 198.333L172.333 198.667L171.667 198.333z"/>
<path style="fill:#d1a1a2; stroke:none;" d="M43 199L45 204L46 204L43 199z"/>
<path style="fill:#8a5a58; stroke:none;" d="M117.667 199.333L118.333 199.667L117.667 199.333M169.667 199.333L170.333 199.667L169.667 199.333z"/>
<path style="fill:#d1a1a2; stroke:none;" d="M244 199L242 204L243 204L244 199z"/>
<path style="fill:#8a5a58; stroke:none;" d="M44 200L45 201L44 200M119.667 200.333L120.333 200.667L119.667 200.333M167 200L168 201L167 200M243 200L244 201L243 200M122.667 201.333L123.333 201.667L122.667 201.333M164 201L164 202L167 202L164 201M45 202L46 203L45 202z"/>
<path style="fill:#7d262a; stroke:none;" d="M114.667 202.333L115.333 202.667L114.667 202.333z"/>
<path style="fill:#8a5a58; stroke:none;" d="M124 202L124 203L127 203L124 202M161 202L161 203L164 203L161 202M242 202L243 203L242 202M127 203L127 204L130 204L127 203M158 203L158 204L161 204L158 203M241 203L240 206L241 203z"/>
<path style="fill:#d1a1a2; stroke:none;" d="M46 204L52 213L46 204z"/>
<path style="fill:#7d262a; stroke:none;" d="M130.667 204.333L131.333 204.667L130.667 204.333z"/>
<path style="fill:#8a5a58; stroke:none;" d="M132 204L132 205L135 205L132 204M152 204L152 205L156 205L152 204z"/>
<path style="fill:#7d262a; stroke:none;" d="M156.667 204.333L157.333 204.667L156.667 204.333z"/>
<path style="fill:#8a5a58; stroke:none;" d="M47 205L48 206L47 205M140 205L140 206L149 206L140 205z"/>
<path style="fill:#d1a1a2; stroke:none;" d="M241 205L242 206L241 205M240 206L235 215L236 215L240 206z"/>
<path style="fill:#8a5a58; stroke:none;" d="M48 207L49 208L48 207M239 207L240 208L239 207M49 208L50 209L49 208M238 208L239 209L238 208M50 210L51 211L50 210M237 210L238 211L237 210M51 211L52 212L51 211M236 211L237 212L236 211M52 213L55 216L52 213M235 213L236 214L235 213z"/>
<path style="fill:#d1a1a2; stroke:none;" d="M52 214L53 215L52 214M53 215L54 216L53 215z"/>
<path style="fill:#8a5a58; stroke:none;" d="M233 215L234 216L233 215z"/>
<path style="fill:#d1a1a2; stroke:none;" d="M234 215L235 216L234 215M54 216L55 217L54 216M233 216L234 217L233 216M55 217L58 221L55 217M232 217L228 223L232 217z"/>
<path style="fill:#8a5a58; stroke:none;" d="M231 218L232 219L231 218M57 219L58 220L57 219M230 219L231 220L230 219M229 220L230 221L229 220z"/>
<path style="fill:#d1a1a2; stroke:none;" d="M58 221L60 223L58 221z"/>
<path style="fill:#8a5a58; stroke:none;" d="M59 221L60 222L59 221M228 221L229 222L228 221z"/>
<path style="fill:#d1a1a2; stroke:none;" d="M60 223L61 224L60 223M227 223L228 224L227 223M61 224L62 225L61 224M226 224L227 225L226 224M62 225L64 227L62 225z"/>
<path style="fill:#8a5a58; stroke:none;" d="M63 225L64 226L63 225z"/>
<path style="fill:#d1a1a2; stroke:none;" d="M225 225L223 228L225 225M64 227L65 228L64 227M65 228L66 229L65 228M222 228L223 229L222 228M66 229L68 231L66 229z"/>
<path style="fill:#8a5a58; stroke:none;" d="M67 229L68 230L67 229M220 229L217 233L220 229z"/>
<path style="fill:#d1a1a2; stroke:none;" d="M221 229L222 230L221 229M220 230L221 231L220 230M68 231L72 234L72 233L68 231z"/>
<path style="fill:#8a5a58; stroke:none;" d="M69 231L70 232L69 231z"/>
<path style="fill:#d1a1a2; stroke:none;" d="M219 231L220 232L219 231z"/>
<path style="fill:#8a5a58; stroke:none;" d="M70 232L71 233L70 232z"/>
<path style="fill:#d1a1a2; stroke:none;" d="M218 232L219 233L218 232M216.667 233.333L217.333 233.667L216.667 233.333M72 234L73 235L72 234z"/>
<path style="fill:#8a5a58; stroke:none;" d="M214 234L211 238L214 234z"/>
<path style="fill:#d1a1a2; stroke:none;" d="M215 234L216 235L215 234M73 235L77 238L77 237L73 235z"/>
<path style="fill:#8a5a58; stroke:none;" d="M74 235L75 236L74 235z"/>
<path style="fill:#d1a1a2; stroke:none;" d="M214 235L215 236L214 235z"/>
<path style="fill:#8a5a58; stroke:none;" d="M75 236L76 237L75 236z"/>
<path style="fill:#d1a1a2; stroke:none;" d="M213 236L214 237L213 236M212 237L213 238L212 237M77 238L83 242L83 241L77 238z"/>
<path style="fill:#8a5a58; stroke:none;" d="M78 238L79 239L78 238M209 238L208 240L209 238z"/>
<path style="fill:#d1a1a2; stroke:none;" d="M210 238L211 239L210 238z"/>
<path style="fill:#8a5a58; stroke:none;" d="M79 239L80 240L79 239z"/>
<path style="fill:#d1a1a2; stroke:none;" d="M209 239L210 240L209 239z"/>
<path style="fill:#8a5a58; stroke:none;" d="M81 240L82 241L81 240M206 240L207 241L206 240z"/>
<path style="fill:#d1a1a2; stroke:none;" d="M207.667 240.333L208.333 240.667L207.667 240.333M205.667 241.333L206.333 241.667L205.667 241.333M83 242L83 243L93 248L93 247L83 242z"/>
<path style="fill:#8a5a58; stroke:none;" d="M84 242L85 243L84 242M203 242L204 243L203 242z"/>
<path style="fill:#d1a1a2; stroke:none;" d="M204 242L205 243L204 242z"/>
<path style="fill:#8a5a58; stroke:none;" d="M86 243L87 244L86 243z"/>
<path style="fill:#d1a1a2; stroke:none;" d="M202.667 243.333L203.333 243.667L202.667 243.333z"/>
<path style="fill:#8a5a58; stroke:none;" d="M87 244L88 245L87 244M200 244L201 245L200 244z"/>
<path style="fill:#d1a1a2; stroke:none;" d="M201 244L202 245L201 244z"/>
<path style="fill:#8a5a58; stroke:none;" d="M89 245L90 246L89 245M198 245L199 246L198 245z"/>
<path style="fill:#d1a1a2; stroke:none;" d="M199.667 245.333L200.333 245.667L199.667 245.333z"/>
<path style="fill:#8a5a58; stroke:none;" d="M91 246L92 247L91 246M196 246L197 247L196 246z"/>
<path style="fill:#d1a1a2; stroke:none;" d="M197.667 246.333L198.333 246.667L197.667 246.333z"/>
<path style="fill:#8a5a58; stroke:none;" d="M194 247L195 248L194 247z"/>
<path style="fill:#d1a1a2; stroke:none;" d="M195.667 247.333L196.333 247.667L195.667 247.333M93 248L93 249L99 251L99 250L93 248z"/>
<path style="fill:#8a5a58; stroke:none;" d="M95 248L96 249L95 248M192 248L193 249L192 248z"/>
<path style="fill:#d1a1a2; stroke:none;" d="M193.667 248.333L194.333 248.667L193.667 248.333z"/>
<path style="fill:#8a5a58; stroke:none;" d="M97 249L98 250L97 249M190 249L191 250L190 249z"/>
<path style="fill:#d1a1a2; stroke:none;" d="M191.667 249.333L192.333 249.667L191.667 249.333z"/>
<path style="fill:#8a5a58; stroke:none;" d="M99 250L100 251L99 250M187.667 250.333L188.333 250.667L187.667 250.333z"/>
<path style="fill:#d1a1a2; stroke:none;" d="M189.667 250.333L190.333 250.667L189.667 250.333M100 251L100 252L110 255L110 254L100 251z"/>
<path style="fill:#8a5a58; stroke:none;" d="M102 251L103 252L102 251M185 251L186 252L185 251z"/>
<path style="fill:#d1a1a2; stroke:none;" d="M186.667 251.333L187.333 251.667L186.667 251.333z"/>
<path style="fill:#8a5a58; stroke:none;" d="M105 252L106 253L105 252M183 252L184 253L183 252z"/>
<path style="fill:#d1a1a2; stroke:none;" d="M184.667 252.333L185.333 252.667L184.667 252.333z"/>
<path style="fill:#8a5a58; stroke:none;" d="M108 253L109 254L108 253M179.667 253.333L180.333 253.667L179.667 253.333z"/>
<path style="fill:#d1a1a2; stroke:none;" d="M181 253L181 254L184 254L181 253z"/>
<path style="fill:#8a5a58; stroke:none;" d="M110 254L110 255L116 256L116 255L110 254M176.667 254.333L177.333 254.667L176.667 254.333z"/>
<path style="fill:#d1a1a2; stroke:none;" d="M178 254L178 255L181 255L178 254M111.667 255.333L112.333 255.667L111.667 255.333z"/>
<path style="fill:#8a5a58; stroke:none;" d="M169 256L169 257L175 256L169 256z"/>
<path style="fill:#d1a1a2; stroke:none;" d="M175.667 255.333L176.333 255.667L175.667 255.333M114 256L114 257L129 259L114 256z"/>
<path style="fill:#8a5a58; stroke:none;" d="M118.667 256.333L119.333 256.667L118.667 256.333z"/>
<path style="fill:#d1a1a2; stroke:none;" d="M171 256L171 257L174 257L171 256z"/>
<path style="fill:#8a5a58; stroke:none;" d="M123.667 257.333L124.333 257.667L123.667 257.333M163.667 257.333L164.333 257.667L163.667 257.333z"/>
<path style="fill:#d1a1a2; stroke:none;" d="M150 259L150 260L170 258L150 259z"/>
<path style="fill:#8a5a58; stroke:none;" d="M129 258L129 259L133 259L129 258M154 258L154 259L159 259L154 258z"/>
<path style="fill:#d1a1a2; stroke:none;" d="M130 259L130 260L138 260L130 259z"/>
<path style="fill:#8a5a58; stroke:none;" d="M138 259L138 260L150 260L138 259z"/>
<path style="fill:#7d262a; stroke:none;" d="M0 277L0 278L303 278L276 277L214 277L0 277z"/>
</svg>
